<svg width="49" height="57" viewBox="0 0 49 57" fill="none" xmlns="http://www.w3.org/2000/svg">
<path d="M40.9561 54.5401C37.8717 57.4954 34.4681 57.0408 31.2241 55.6418C27.7674 54.2253 24.612 54.1379 20.9781 55.6418C16.44 57.5654 14.0291 57.0058 11.2992 54.5401C-4.14081 38.8713 -1.85406 15.001 15.6777 14.1092C19.9322 14.3365 22.9103 16.435 25.4097 16.6099C29.1324 15.8579 32.6955 13.7244 36.684 14.0042C41.4702 14.389 45.051 16.2426 47.4441 19.6002C37.5881 25.441 39.928 38.2418 48.9687 41.8442C47.1605 46.5308 44.8383 51.165 40.9384 54.5925V54.5576L40.9561 54.5401ZM25.0729 13.9343C24.612 6.9743 30.3378 1.23843 36.9144 0.678833C37.8185 8.70556 29.5046 14.7212 25.0729 13.9343Z" fill="black"/>
</svg>
