<svg width="48" height="60" viewBox="0 0 48 60" fill="none" xmlns="http://www.w3.org/2000/svg">
<path d="M37.7769 38.5C37.7769 47.708 30.3804 55.1843 21.2706 55.1843C12.1608 55.1843 4.76544 47.708 4.76544 38.5C4.76544 29.292 12.1619 21.8157 21.2706 21.8157C30.3793 21.8157 37.7769 29.292 37.7769 38.5ZM37.3058 21.6023H39.8757C37.338 19.5786 34.3759 18.168 31.2159 17.4796C33.3959 18.5375 35.3981 19.9335 37.1502 21.6192C37.2014 21.608 37.2536 21.6035 37.3069 21.6035L37.3058 21.6023ZM41.849 28.0016H45.2912C44.3568 26.3192 43.2046 24.7716 41.8635 23.3993H38.8169C40.0046 24.8065 41.0224 26.3518 41.849 28.0016ZM43.9634 34.4008H47.6122C47.3089 32.8173 46.83 31.2731 46.1823 29.7985H42.6557C43.2479 31.2832 43.6857 32.8252 43.9634 34.4008ZM37.1491 55.3797C35.3981 57.0643 33.3948 58.4614 31.2148 59.5193C34.3748 58.8309 37.3369 57.4203 39.8746 55.3966H37.3047C37.2525 55.3966 37.2002 55.3909 37.148 55.3808L37.1491 55.3797ZM42.6557 47.1993H46.1823C46.83 45.7247 47.31 44.1805 47.6122 42.597H43.9634C43.6868 44.1726 43.2479 45.7157 42.6557 47.1993ZM36.1514 53.8557C32.1815 57.7988 26.836 60.0045 21.2706 59.9989C9.53089 60 0 50.3663 0 38.5C0 26.6337 9.53089 17 21.2706 17C26.836 16.9933 32.1815 19.2001 36.1514 23.1432C37.9447 24.9176 39.4135 26.9976 40.4924 29.2864C41.4068 31.2282 42.0246 33.2991 42.3257 35.4273C42.6146 37.4657 42.6146 39.5344 42.3257 41.5727C42.0246 43.7009 41.4057 45.7719 40.4924 47.7137C39.4135 50.0036 37.9447 52.0835 36.1514 53.8568V53.8557ZM39.5546 38.4989C39.5546 28.2992 31.3615 20.0177 21.2706 20.0177C11.1797 20.0177 2.98771 28.3003 2.98771 38.5C2.98771 48.6997 11.1809 56.9812 21.2706 56.9812C31.3604 56.9812 39.5546 48.6997 39.5546 38.5V38.4989ZM47.8778 36.1977H44.209C44.3568 37.7285 44.3568 39.2693 44.209 40.8001H47.8778C48.04 39.2704 48.04 37.7273 47.8778 36.1977ZM38.8169 53.5985H41.8635C43.2046 52.2261 44.3568 50.6774 45.2912 48.9962H41.849C41.0224 50.6471 40.0046 52.1925 38.8169 53.5985ZM24.0239 46.3604C25.1983 45.7348 26.0783 44.9318 26.6638 43.9536C27.2494 42.9743 27.4805 41.8703 27.356 40.6417C27.2727 39.823 27.036 39.1581 26.646 38.6494C26.2561 38.1406 25.7605 37.7386 25.1605 37.4398C24.5605 37.1422 23.9183 36.912 23.2339 36.7492C22.5495 36.5863 21.8628 36.4459 21.174 36.328C20.4851 36.2101 19.8573 36.0731 19.2896 35.9158C18.7218 35.7586 18.254 35.5419 17.8874 35.2645C17.5207 34.9882 17.3118 34.5906 17.2585 34.074C17.2196 33.5203 17.3563 33.0206 17.6674 32.5736C17.9785 32.1277 18.4562 31.7538 19.1029 31.4528C19.7484 31.1518 20.5306 30.9541 21.4462 30.8587C22.3806 30.7621 23.2917 30.7935 24.1806 30.953C25.0694 31.1125 25.8894 31.3876 26.6416 31.7773L27.6838 28.8877C26.856 28.4519 25.8905 28.1554 24.7883 28.0005C23.6861 27.8444 22.5361 27.8298 21.3373 27.9533C19.7507 28.1184 18.3751 28.5126 17.2107 29.1381C16.0452 29.7637 15.1685 30.5611 14.5819 31.5303C13.9952 32.5006 13.7641 33.6001 13.8886 34.8287C13.9752 35.6834 14.2197 36.3785 14.6208 36.9131C15.0219 37.4477 15.5141 37.8689 16.0985 38.1777C16.6818 38.4865 17.3207 38.7258 18.0151 38.8965C18.7096 39.0672 19.3962 39.212 20.0762 39.33C20.7562 39.4479 21.3839 39.5815 21.9595 39.7287C22.535 39.8758 23.0061 40.088 23.3728 40.3654C23.7394 40.6428 23.9483 41.0303 23.9983 41.5289C24.055 42.0815 23.9217 42.5723 23.6006 43.0013C23.2795 43.4303 22.7939 43.7874 22.1462 44.0704C21.4984 44.3534 20.7251 44.5421 19.8262 44.6353C19.0862 44.7117 18.3418 44.7083 17.5951 44.6241C16.8474 44.5399 16.1363 44.3804 15.463 44.1434C14.7885 43.9076 14.1663 43.6032 13.5941 43.2304L12.4175 46.1066C12.9519 46.4659 13.6108 46.7703 14.3941 47.0218C15.1763 47.2734 16.0363 47.4497 16.9718 47.5508C17.9074 47.6519 18.8607 47.6519 19.8295 47.5508C21.4506 47.3824 22.8484 46.9848 24.0228 46.3592L24.0239 46.3604ZM20.4995 50.4528L22.9161 24.8211L20.7751 25.0434L18.3585 50.6752L20.4995 50.4528Z" fill="white"/>
<path d="M23.9975 0C16.1985 0 3 1.47132 3 7.00249C3 12.5337 16.1985 14.005 23.9975 14.005C31.7964 14.005 44.9949 12.5337 44.9949 7.00249C44.9949 1.47132 31.8015 0 23.9975 0ZM23.9975 10.4589C13.514 10.4589 7.10576 8.15461 6.61674 7.07232C7.10576 5.85037 13.514 3.54613 23.9975 3.54613C34.4809 3.54613 40.6344 5.7606 41.3374 7.00249C40.6294 8.24439 34.2771 10.4589 23.9975 10.4589Z" fill="white"/>
</svg>
