<svg width="273" height="60" viewBox="0 0 273 60" fill="none" xmlns="http://www.w3.org/2000/svg">
<mask id="mask0_55_2426" style="mask-type:alpha" maskUnits="userSpaceOnUse" x="0" y="0" width="273" height="60">
<rect x="2.66479" y="2.25232" width="268.335" height="55.2903" rx="19.7465" fill="#DE6758" stroke="black" stroke-width="3.94931"/>
</mask>
<g mask="url(#mask0_55_2426)">
<path d="M-13.9248 77.1952C-13.28 81.9491 -13.6213 86.0076 -9.22145 87.4616C-6.09854 88.4984 -3.11472 88.4225 -1.7366 92.5189C-1.2688 93.9097 -1.07915 95.4901 0.273682 96.4257C4.48391 99.3084 5.22988 97.8418 6.99995 103.228C7.87234 105.896 10.9067 105.984 12.2596 103.632C15.3698 98.2337 5.53332 96.7165 0.261047 86.9179C-1.24351 84.1111 1.9426 81.8227 3.76324 83.3904C6.93671 86.134 7.61946 90.7615 13.4354 94.327C17.3295 96.7165 17.1778 103.24 20.7685 101.496C24.3087 99.7762 20.5283 96.8683 22.0202 94.681C22.7156 93.6569 24.3845 93.758 25.2316 94.289C26.0914 94.8327 26.9638 95.3637 27.6971 96.0464C29.8717 98.0314 33.3107 98.1326 34.221 100.611C34.7141 101.976 33.6774 103.949 31.0096 102.886C30.2637 102.596 29.5809 102.166 28.8476 101.85C27.6212 101.306 25.7374 101.597 25.0167 103.152C24.5615 104.138 24.0684 105.162 22.9305 105.693C21.957 106.148 21.0467 106.224 19.9973 106.009C17.2158 105.44 17.1146 104.72 13.8526 107.615C10.8562 110.27 8.64356 114.936 12.4745 117.249C16.0652 119.411 17.5318 119.437 19.3272 122.281C21.0593 125.025 22.5765 124.81 23.6385 123.002C27.0143 117.211 28.7591 124.443 32.0337 126.934C34.8405 129.071 37.2048 127.718 42.1737 125.998C45.777 124.759 47.8505 121.055 52.8699 121.118C56.4606 121.169 57.2445 127.238 53.4262 127.225C52.1872 127.225 50.9229 127.339 49.6964 127.2C48.2045 127.023 46.9402 128.742 46.877 129.893C46.8011 131.233 48.116 132.674 49.5447 132.826C51.1378 133.003 52.6044 132.535 54.0837 132.042C61.9099 129.463 60.4053 138.541 53.2619 137.087C47.762 135.961 46.1816 139.919 45.0816 140.816C40.2393 144.786 41.6679 142.321 35.321 147.694C27.7729 154.105 29.5051 151.968 26.6097 153.789C24.1569 155.331 25.1052 157.885 27.0649 158.087C29.72 158.365 31.1866 156.949 37.3819 151.917C42.9955 147.366 46.169 149.515 48.331 144.306C50.3413 139.438 54.5389 140.589 53.363 143.8C52.8573 145.153 50.8849 147.745 52.9331 148.946C53.5274 149.3 54.8802 148.946 55.4745 148.453C57.725 146.544 57.0675 143.155 63.0605 137.327C65.6776 134.786 68.2316 138.187 67.4224 139.565C66.942 140.387 66.4742 141.322 65.7408 141.853C61.8846 144.647 61.9605 147.189 59.3686 149.553C57.7755 151.007 58.0537 153.409 60.1146 154.193C65.8673 156.355 68.8637 157.708 73.1751 153.043C73.782 152.385 74.1107 150.779 76.5509 150.173C78.1692 149.781 79.1175 152.36 77.5623 154.117C76.1716 155.698 75.8555 158.302 77.3095 158.846C78.1819 159.175 79.0922 159.352 79.8887 158.681C80.5841 158.1 81.153 157.417 81.3806 156.456C82.3415 152.372 85.7552 151.045 88.2333 152.335C89.2195 152.853 90.1172 153.536 91.0781 154.105C93.9228 155.786 95.8825 156.355 96.7043 158.138C97.3871 159.604 96.6285 161.615 95.086 162.209C91.5585 163.574 90.4965 159.908 89.4091 158.252C88.6632 157.114 86.6023 156.583 85.5276 157.19C83.0116 158.631 83.4921 162.133 86.438 163.764C87.3609 164.282 88.208 164.978 89.1563 165.42C90.939 166.23 91.9757 169.441 89.485 170.933C87.2977 172.235 86.2989 170.187 82.7335 166.394C80.2175 163.714 77.1578 164.586 74.136 161.058C72.897 159.604 70.1154 158.264 68.8132 159.958C67.3339 161.868 69.104 163.145 71.4935 164.877C75.2233 167.582 71.4935 170.693 71.5694 174.233C71.5947 175.636 72.7832 176.635 74.0728 176.584C75.7417 176.521 76.5888 173.955 76.5003 172.235C76.336 168.961 79.5726 168.366 80.4324 169.82C81.7346 172.02 81.4312 172.058 79.8508 176.091C77.7646 181.452 80.2427 185.106 81.9369 185.321C83.5679 185.523 85.1863 184.234 85.1989 182.577C85.1989 180.137 83.3403 178.266 84.2127 176.458C85.869 173.006 89.0804 175.105 89.6241 178.19C89.8643 179.556 89.8264 180.959 90.0287 182.337C90.3068 184.208 89.3459 185.473 87.9678 186.408C83.9852 189.114 86.7161 191.567 86.2989 193.274C85.7805 195.347 83.3783 195.094 82.0255 193.008C78.7508 187.976 76.2727 187.888 75.0463 183.387C73.8326 178.911 70.5706 180.365 67.9408 179.202C66.588 178.607 66.1581 177.103 66.5627 175.99C66.8535 175.194 67.1948 174.41 67.5741 173.651C69.7993 169.188 67.0557 167.241 63.8443 161.754C62.2133 158.972 59.5709 158.808 56.625 157.442C53.4515 155.976 52.9584 150.173 47.6229 152.17C44.3357 153.397 41.0105 154.572 38.1784 156.722C32.944 160.692 32.7038 161.981 29.3407 162.474C27.8867 162.689 20.1111 159.693 17.8353 165.61C17.2663 167.102 18.3031 169.1 19.8835 169.34C21.4892 169.58 23.8535 167.001 25.927 166.482C28.443 165.838 30.8579 166.621 31.8567 168.923C32.7038 170.857 33.4245 172.867 33.3107 175.08C33.1337 178.62 28.9235 182.451 26.635 179.96C24.5362 177.672 30.8452 174.195 28.2786 171.995C27.6086 171.426 26.8752 170.768 25.7121 171.198C23.4868 171.995 22.311 173.499 22.2478 175.813C22.1972 177.798 21.9191 180.643 19.9467 180.706C17.8985 180.769 17.241 178.595 17.2031 176.534C17.0893 169.985 12.8411 170.301 12.9549 164.624C12.9929 162.437 14.0549 160.54 17.7215 159.44C22.2352 158.075 19.7444 153.472 23.9041 150.691C25.5856 149.566 26.1166 149.831 31.0475 145.343C38.76 138.326 35.9152 140.159 40.4415 137.694C42.4139 136.619 45.2713 135.898 44.5886 133.458C44.0828 131.675 42.3886 130.563 39.4806 131.448C34.9923 132.813 34.4233 136.998 29.4166 140.349C26.1546 142.523 24.1696 146 23.6512 146.443C23.0064 146.999 21.6536 147.189 21.0846 146.847C20.5662 146.531 19.8456 145.027 20.1869 144.42C20.6547 143.598 20.1869 142.941 20.0605 142.258C19.7065 140.336 16.2422 140.652 15.7871 143.029C15.2434 145.886 14.0549 146.948 11.286 147.682C6.92409 148.832 3.24487 145.381 1.48745 147.947C0.450699 149.452 2.11961 151.007 2.96672 153.22C3.28281 154.041 2.85292 155.205 2.18282 155.609C1.66444 155.913 0.223106 155.799 -0.244698 155.356C-1.77454 153.915 -3.22851 151.841 -4.61928 152.726C-5.51695 153.295 -6.01004 154.471 -5.60545 155.457C-5.16294 156.519 -4.6572 157.594 -3.98711 158.542C-1.45844 162.133 -3.14001 165.939 -5.84568 168.164C-7.29966 169.352 -10.2835 168.341 -9.42374 165.623C-9.2341 165.016 -9.1203 164.358 -8.80421 163.827C-7.90654 162.272 -7.88126 160.666 -8.43756 159.035C-11.2823 150.767 -14.9109 153.637 -17.1488 151.146C-17.9327 150.274 -18.0844 149.616 -17.5408 148.542C-17.3764 148.213 -17.1741 147.871 -16.9086 147.631C-13.0144 144.192 -13.1283 140.93 -6.98359 136.353C-4.73308 134.684 -2.92508 132.775 -2.53313 129.817C-2.39406 128.78 -1.87568 127.806 -1.62281 126.77C-0.573418 122.572 -4.25262 122.079 -7.4008 120.751C-9.44902 119.892 -9.55017 117.06 -8.41227 116.162C-5.37788 113.747 -0.47226 120.208 3.70004 122.408C9.6424 125.543 16.3939 127.769 12.9929 132.459C12.8032 132.725 12.5251 132.914 12.3481 133.18C10.8562 135.355 12.9549 137.504 14.8388 136.998C20.8317 135.405 21.9443 140.45 26.1293 137.34C27.6465 136.214 29.0499 134.988 30.0487 133.357C32.2739 129.779 24.6627 124.456 24.2328 129.602C24.0811 131.536 24.688 132.699 22.5259 133.407C21.6662 133.698 20.3639 133.37 19.8708 132.598C19.4283 131.89 18.91 131.094 18.8467 130.31C18.4674 125.025 13.9917 122.711 6.88614 118.45C5.47009 117.603 1.86674 116.25 0.513908 114.898C-2.6722 111.724 -2.55842 113.014 -8.55135 109.448C-10.1697 108.487 -11.3329 108.487 -12.4581 109.625C-13.1662 110.346 -13.4696 111.105 -13.2041 112.217C-12.1421 116.529 -14.3546 125.771 -16.0362 128.072C-16.8074 129.121 -18.2994 129.526 -19.1338 129.033C-20.9924 127.92 -19.6775 125.151 -18.8304 123.179C-17.3638 119.791 -18.2994 118.122 -17.2879 113.444C-16.9086 111.699 -17.8821 109.297 -19.943 110.295C-23.167 111.851 -22.99 114.329 -30.7277 111.218C-32.3714 110.561 -33.7874 108.715 -32.6622 106.54C-30.9048 103.139 -31.1323 103.923 -30.8163 99.2199C-30.4622 93.9856 -24.3429 93.6695 -24.0774 97.7027C-23.8624 100.901 -26.5555 102.849 -27.5669 105.048C-28.5278 107.122 -26.3026 109.094 -24.2797 107.843C-21.0682 105.858 -21.2073 104.783 -18.0086 105.415C-12.7363 106.452 -11.7754 103.203 -9.1203 103.658C-8.85479 103.708 -8.55136 103.645 -8.32378 103.759C-5.68133 105.137 -2.82393 106.148 -0.813644 108.563C4.97701 115.505 8.47921 111.8 6.8735 109.41C5.29309 107.071 4.96436 108.222 2.62534 104.973C1.28515 103.139 0.564491 101.483 -2.40669 101.281C-4.70778 101.116 -6.2882 99.9279 -5.84568 97.4751C-5.7951 97.159 -5.2388 95.566 -5.80775 94.0614C-6.65485 91.7983 -9.1203 92.3419 -9.81569 93.9603C-10.5996 95.7683 -11.3202 101.559 -17.8189 100.977C-20.4108 100.75 -20.8407 97.3108 -18.8304 96.2487C-16.0236 94.7568 -13.8615 94.7315 -12.9512 92.2661C-12.1294 90.0282 -14.1397 88.4478 -16.15 89.1305C-19.3361 90.2052 -19.6522 93.8591 -24.0394 90.3822C-26.6945 88.2834 -28.3255 90.3316 -35.3173 94.1499C-36.746 94.9338 -37.4793 96.9441 -37.2264 97.728C-36.9609 98.5372 -36.7713 99.3969 -36.3414 100.118C-33.3576 105.15 -41.4999 107.21 -37.7827 111.484C-35.6839 113.911 -30.6645 116.832 -25.9486 116.706C-25.2153 116.68 -24.4061 117.06 -23.7486 117.452C-20.651 119.31 -25.3923 124.481 -24.1279 130.297C-22.9521 135.709 -27.2003 136.897 -28.6669 134.659C-31.8909 129.728 -24.2923 122.623 -30.0324 120.499C-33.7116 119.133 -35.7724 119.222 -40.2861 114.973C-50.8812 105.023 -40.2988 106.819 -40.4631 102.343C-40.5516 100.029 -42.9412 99.9911 -45.1285 100.864C-49.7686 102.735 -50.2743 102.368 -53.372 104.884C-54.0168 105.402 -54.8006 105.782 -55.5845 106.073C-56.3684 106.363 -57.5443 105.567 -57.6201 104.745C-57.696 103.961 -57.7845 103.165 -57.0385 102.52C-56.4443 102.001 -56.0271 101.281 -55.4834 100.699C-51.8295 96.7797 -59.7063 93.3408 -51.6777 89.1811C-50.0973 88.3593 -49.1238 86.2352 -48.9215 85.2237C-48.0112 80.5963 -44.7618 81.0515 -44.9894 77.9665C-45.0906 76.5251 -46.3802 75.716 -47.6825 76.3861C-48.3399 76.7274 -48.8709 77.2711 -49.4905 77.6883C-51.6272 79.0917 -53.0685 77.7136 -52.7398 76.0321C-52.3478 74.0218 -51.0582 73.0609 -52.4743 70.0518C-53.0812 68.7495 -53.688 67.4346 -54.4593 66.2461C-55.3949 64.7921 -57.4937 64.5898 -58.9982 65.8668C-66.0406 71.8597 -63.2717 75.0458 -61.1097 73.908C-60.4522 73.5666 -59.8327 73.1367 -59.2637 72.6689C-56.7098 70.5701 -55.2937 73.1999 -56.2926 75.0585C-56.9247 76.2343 -59.0235 78.8895 -56.8109 80.4572C-56.0776 80.9756 -55.3822 81.5825 -54.7248 82.2146C-53.3846 83.5169 -53.2202 84.3008 -53.9915 85.4134C-54.6995 86.4375 -56.0903 86.7536 -57.4431 86.172C-62.9809 83.7445 -60.9959 78.5228 -66.7739 76.3608C-75.7254 73.0229 -60.5154 69.0656 -66.4578 62.2635C-69.1382 59.2038 -69.8589 55.2085 -70.7565 52.427C-71.3128 50.7075 -70.7439 48.28 -68.4302 47.4581C-66.6601 46.826 -64.9153 47.8248 -64.89 49.696C-64.8268 54.3867 -66.4452 54.235 -63.082 60.4555C-62.6016 61.3279 -60.4775 62.6048 -59.3775 61.429C-57.9236 59.8739 -58.8718 59.3429 -59.5545 57.3579C-59.7695 56.7131 -60.0476 56.0556 -60.0603 55.3981C-60.0856 53.9821 -59.0488 53.0718 -57.342 52.781C-54.9903 52.389 -52.8915 52.3511 -50.5651 49.3546C-49.3893 47.8374 -48.264 46.3076 -46.671 45.157C-45.2296 44.1203 -44.4584 42.6031 -44.0032 40.8962C-43.232 38.0136 -40.5263 36.8883 -39.3252 40.0491C-38.4908 42.2364 -39.7298 43.033 -37.3276 45.7892C-35.1023 48.3558 -33.3449 50.4925 -34.9127 53.4005C-36.1138 55.6131 -36.1897 58.4578 -33.6863 58.6222C-30.3611 58.8498 -31.4611 57.0165 -24.6337 53.312C-20.3096 50.9603 -19.0453 47.4455 -17.8063 45.157C-17.1235 43.8927 -15.5558 43.2732 -14.4052 43.7789C-13.3305 44.2594 -12.7869 45.7134 -13.2673 47.0662C-14.1018 49.3546 -14.3167 49.2661 -17.958 53.6534C-20.4993 56.713 -22.9395 56.713 -26.3152 60.0635C-28.3255 62.0485 -29.5393 63.7933 -32.0553 63.3508C-35.0897 62.8198 -37.8207 61.4669 -40.2229 59.5578C-43.5481 56.928 -40.4884 54.2476 -39.3758 51.5293C-38.9333 50.4546 -39.6034 48.6087 -40.5263 47.9639C-41.7907 47.0788 -43.4469 47.5087 -44.3699 49.0259C-44.7871 49.7086 -45.1159 50.442 -45.4067 51.1879C-47.4043 56.1441 -52.0065 54.0327 -54.434 57.0418C-56.2799 59.3302 -54.1306 62.0991 -51.9812 61.2646C-49.579 60.329 -47.7962 57.6739 -46.1905 58.5337C-44.0918 59.6463 -44.1929 62.1876 -47.1009 63.414C-49.9835 64.6404 -49.7813 68.0541 -48.2767 69.7609C-43.5102 75.2102 -41.0194 72.8839 -39.8562 76.0573C-39.4896 77.0688 -39.3379 78.0423 -39.8815 78.9779C-40.4252 79.9135 -40.9562 80.8744 -41.7148 81.5825C-47.1388 86.6524 -41.6642 89.9776 -47.0629 91.9121C-49.6422 92.835 -49.6801 92.9362 -50.2743 93.7201C-51.88 95.8189 -49.7307 98.0567 -47.4802 97.4499C-44.117 96.5395 -40.2988 94.7442 -39.2746 91.3937C-38.6551 89.3708 -40.7666 86.9432 -39.1356 85.2617C-38.4149 84.5157 -37.9471 84.3008 -37.0747 84.8571C-36.4173 85.2743 -35.7092 85.8054 -35.3552 86.4628C-34.6093 87.8283 -32.4978 88.2076 -31.2714 87.3984C-28.414 85.5272 -26.3658 80.571 -23.6096 83.441C-23.1291 83.9341 -22.7625 84.541 -22.3705 85.11C-21.5234 86.3364 -20.0315 86.9179 -18.9062 86.3996C-17.8568 85.9191 -17.1488 84.0858 -17.5028 82.9353C-18.9442 78.1182 -18.1224 75.7286 -17.9454 72.4793C-17.5155 64.0083 -3.31702 63.6795 -2.91244 70.9621C-2.76072 73.7815 -3.25381 73.4149 -2.39406 77.5113C-2.12855 78.7756 -1.97682 80.1032 -2.26762 81.4181C-2.55841 82.7456 -4.27792 84.1617 -5.54225 84.0859C-6.88245 83.9973 -8.08355 82.6951 -8.34905 81.279C-8.741 79.1676 -7.23644 76.9929 -7.4008 72.6563C-7.43874 71.5563 -8.84215 70.3046 -9.81569 70.1908C-13.6845 69.7736 -13.419 73.8321 -13.7857 77.2079L-13.9248 77.1952ZM8.73207 143.636C8.73207 143.636 8.74472 143.56 8.75737 143.509C9.13667 143.509 9.51597 143.56 9.88262 143.509C12.4871 143.042 11.9055 139.476 9.8194 138.92C6.4057 138.01 2.48627 137.618 0.539207 137.668C-3.19057 137.769 -5.02386 140.21 -9.39845 145.128C-10.8271 146.721 -11.611 148.276 -10.018 149.692C-8.95594 150.64 -7.46402 150.666 -5.68131 149.237C-3.11472 147.176 -1.36994 141.588 3.35866 142.296C4.44598 142.46 5.49538 142.877 6.57006 143.168C7.29073 143.358 8.01141 143.497 8.73207 143.649V143.636ZM3.88968 127.566C3.48509 127.781 2.57478 128.047 1.95525 128.628C1.14608 129.4 0.539185 130.449 0.918488 131.637C2.29661 135.911 9.37688 133.736 8.28955 130.323C7.83439 128.906 5.86205 127.503 3.87704 127.554L3.88968 127.566Z" fill="black" fill-opacity="0.04"/>
<path d="M113.33 24.9026C115.48 25.029 117.111 23.3727 116.997 21.2107C116.769 17.266 116.719 14.1431 119.576 12.6891C121.119 11.9052 123.331 9.99608 126.151 11.3616C138.946 17.5947 130.74 28.253 127.377 24.2957C125.809 22.4498 127.921 21.3371 127.718 18.6947C127.402 14.6362 121.321 14.8258 121.473 18.6947C121.523 19.9211 122.282 22.0578 122.408 23.1957C122.661 25.6106 121.371 25.914 119.5 27.0646C116.061 29.1507 119.083 31.7552 118.868 34.1069C118.59 37.1666 114.683 37.0907 114.127 34.7391C113.57 32.4001 114.076 29.8714 111.371 28.9611C109.929 28.4806 108.361 29.5427 108.159 31.0599C107.906 32.969 108.829 34.4736 109.752 35.9781C111.737 39.2148 114.493 44.3733 117.427 42.3124C119.589 40.7952 121.498 39.0125 122.889 36.7241C123.976 34.9161 123.268 34.4988 123.508 32.8299C124.279 27.3301 127.996 30.0357 132.422 28.4806C133.003 28.2783 136.278 28.2404 136.366 30.6426C136.493 33.7655 132.788 33.0575 130.715 33.5759C127.023 34.4988 128.995 37.5206 124.747 41.4906C123.521 42.6411 123.622 44.1331 118.628 46.156C118.438 46.2319 118.16 46.1939 118.021 46.3203C117.351 46.864 116.58 47.4709 116.655 48.3812C116.744 49.38 117.414 50.1386 118.4 50.4926C119.045 50.7202 119.702 51.011 120.373 51.0616C123.458 51.2765 124.962 53.2868 125.91 55.8661C128.211 62.0613 124.848 63.3256 123.432 65.2474C121.473 67.8899 121.422 70.7599 122.535 73.7184C125.683 82.0251 129.122 82.0757 134.179 87.3859C136.695 90.0283 138.238 88.5617 141.955 89.4847C144.003 89.9904 144.964 92.8099 141.651 94.2386C140.298 94.8328 135.494 93.3029 134.091 92.8731C132.573 92.4305 131.309 91.6467 130.538 90.1548C130.171 89.4594 129.552 88.8904 129.059 88.2583C127.959 86.8422 125.999 88.0433 125.961 89.5226C125.86 93.1006 125.24 94.3776 122.787 95.8696C119.45 97.9051 121.017 100.889 122.37 107.552C122.522 108.273 121.561 110.548 122.433 112.432C124.216 116.263 130.057 113.039 127.706 108.197C126.113 104.922 124.722 100.965 127.01 98.1201C127.996 96.8937 129.615 96.2868 131.208 96.5776C133.711 97.0327 136.151 97.7913 138.351 99.1315C140.121 100.206 140.994 101.192 140.526 103.291C140.286 104.366 138.693 104.834 137.403 104.366C136.29 103.974 135.532 103.139 134.748 102.33C132.675 100.206 129.741 101.508 130.31 103.911C131.486 108.905 136.607 110.258 141.335 108.171C143.168 107.362 144.256 106.313 145.963 107.16C148.213 108.273 148.163 111.231 143.978 112.281C135.153 114.506 134.697 112.116 131.979 114.304C128.717 116.933 126.795 118.059 126.972 120.511C128.161 136.48 121.017 130.184 115.48 136.96C114.683 137.934 112.862 140.463 111.914 141.461C109.866 143.611 107.868 141.803 105.618 140.994C96.2997 137.618 98.3985 146.468 96.8054 149.857C95.3641 152.916 89.801 150.476 92.5573 145.76C94.0239 143.244 94.9595 142.081 93.9227 140.387C93.0503 138.945 91.3561 138.781 90.1171 139.944C88.9792 141.006 88.7769 142.448 88.3976 143.826C87.1333 148.466 82.9357 149.022 79.9898 146.797C78.6117 145.76 76.8163 143.965 74.1359 145.874C71.2532 147.935 70.9119 150.565 67.5867 151.753C66.5246 152.132 65.8545 151.5 65.2097 150.83C61.7455 147.252 79.8128 140.741 72.5176 136.632C70.5958 135.557 68.0924 134.912 68.7372 132.244C68.9395 131.397 70.2291 130.74 71.2027 131.056C73.529 131.815 75.8681 134.419 77.8531 131.6C78.4473 130.752 78.1691 129.096 77.322 128.236C76.2221 127.111 74.7934 126.922 73.3394 126.922C70.1027 126.934 69.2177 123.723 71.2279 122.484C74.0474 120.752 77.0186 122.724 79.876 124.823C84.0483 127.882 84.0104 131.081 81.7978 133.357C80.8242 134.356 79.8381 135.304 79.168 136.581C78.0301 138.768 78.7254 141.259 80.6725 142.713C82.4299 144.028 84.592 142.827 84.2759 140.804C84.2253 140.488 84.2759 140.159 84.2759 139.83C84.2759 137.871 84.7816 137.15 86.6022 136.505C89.8642 135.329 88.0056 133.534 87.7654 131.549C87.4493 128.957 91.0148 128.818 92.7343 132.118C94.6055 135.696 94.5422 136.695 96.6158 137.251C98.1203 137.656 99.5364 136.417 99.2203 134.862C98.7145 132.346 97.1847 130.98 96.1353 129.185C93.6952 125.025 87.9171 126.049 86.0333 124.608C84.769 123.634 84.2 122.041 84.7816 121.118C85.4896 119.968 87.4114 119.399 88.8148 120.094C90.3573 120.865 94.7698 124.532 96.0342 121.877C96.502 120.903 96.3882 119.942 95.756 119.159C91.2171 113.52 85.9069 116.643 84.5161 113.418C84.1115 112.47 84.3264 111.56 85.2368 111.117C85.8942 110.801 86.6528 110.46 87.3482 110.485C90.2941 110.574 93.2273 110.839 95.6549 112.774C97.0456 113.874 98.2594 115.138 98.8031 116.933C99.0054 117.591 99.4226 118.172 99.7134 118.805C100.396 120.233 102.887 120.296 103.544 118.552C104.037 117.262 103.962 116.036 103.443 114.733C102.735 112.9 101.205 111.813 99.7387 110.675C96.4767 108.134 97.1468 105.87 100.055 103.696C101.673 102.482 103.671 104.062 103.645 105.592C103.57 109.512 105.744 110.966 107.856 110.321C108.513 110.119 109.145 109.79 109.815 109.689C113.318 109.132 113.747 111.762 112.508 112.976C110.372 115.049 108.564 114.367 107.691 117.515C107.11 119.614 106.414 122.18 107.173 124.241C107.792 125.935 110.207 126.302 111.181 124.342C112.369 121.927 111.446 121.523 112.192 119.222C112.837 117.224 114.772 116.845 116.263 118.349C117.907 120.006 118.071 122.901 116.339 124.722C114.696 126.441 112.521 127.263 112.888 129.526C113.533 133.433 119.121 130.146 121.333 127.263C122.471 125.784 123.938 119.993 120.044 116.187C117.705 113.899 116.896 111.244 117.515 108.02C117.68 107.16 116.744 99.9154 116.124 98.3097C115.732 97.3109 114.354 96.5902 113.419 96.7672C112.306 96.9822 111.459 98.0821 111.408 99.2959C111.333 101.041 111.775 101.091 112.433 103.102C113.216 105.504 110.637 106.895 109.133 105.529C106.579 103.215 105.871 99.5741 106.591 97.096C107.249 94.8455 110.726 91.9627 115.176 92.7214C118.615 93.3029 120.132 95.0857 123.104 85.8181C123.483 84.617 123.053 83.3653 122.421 82.278C117.932 74.5403 117.616 73.9334 116.188 73.1748C113.065 71.5059 110.334 70.6967 108.02 68.8634C104.998 66.4738 108.071 62.782 111.08 65.2095C113.343 67.0428 115.669 70.2415 117.831 67.9531C120.663 64.9566 115.48 63.5279 113.166 62.0487C112.243 61.4544 111.8 59.7855 112.281 58.9257C112.647 58.2683 114.139 57.7373 114.999 58.1166C117.553 59.2418 120.41 62.5291 122.092 60.0763C123.748 57.6614 120.436 55.2212 117.591 54.5764C114.961 53.9822 111.99 52.1868 111.876 49.5191C111.699 45.2077 108.867 41.4527 105.82 38.4183C101.964 34.5873 106.048 31.0599 103.62 28.4174C102.217 26.8876 99.8525 27.5703 99.7513 29.6944C99.6881 31.0851 99.8145 32.8046 99.6375 33.4115C99.3594 34.3724 98.272 35.2195 97.5261 35.1057C96.4008 34.9414 95.0606 33.7782 95.0101 32.7161C94.8204 29.0116 96.2491 29.5553 95.9077 20.5912C95.7939 17.5694 90.9515 13.081 96.8686 12.2592C98.2467 12.0696 99.4605 12.6891 100.459 13.7132C101.66 14.9523 101.193 16.4315 100.409 18.9223C99.6628 21.2992 100.7 23.4486 103.127 24.1945C106.768 25.3071 110.422 24.7129 113.356 24.8899L113.33 24.9026ZM108.146 137.39C110.915 137.643 112.167 133.837 109.651 132.156C104.05 128.426 104.897 125.859 102.027 124.203C100.75 123.47 99.9157 124.026 99.3088 125.366C98.5881 126.972 99.549 127.111 104.556 135.367C105.365 136.707 106.604 137.327 108.146 137.378V137.39Z" fill="black" fill-opacity="0.04"/>
<path d="M212.505 -9.84131C210.406 -4.40468 207.106 -9.34822 200 -4.72076C196.321 -2.33118 196.827 1.10781 198.622 2.01813C199.924 2.68823 200.986 1.70205 201.897 0.652649C203.161 -0.813976 203.502 -1.85072 205.184 -1.29441C206.55 -0.839252 206.474 0.829662 206.145 2.22043C205.323 5.7732 209.167 8.42829 211.417 6.27893C213.124 4.64794 212.138 3.63646 210.747 1.37331C210.418 0.829647 209.988 0.336563 209.71 -0.219742C209.078 -1.50936 209.369 -2.7484 210.355 -3.32999C213.845 -5.35292 214.11 1.92963 217.865 0.513573C218.434 0.298637 219.054 -0.965698 218.902 -1.80016C218.637 -3.2415 217.676 -4.34146 217.246 -5.18856C215.248 -9.0827 216.045 -14.0515 219.142 -17.1492C219.673 -17.6802 220.217 -18.2112 220.748 -18.7549C222.24 -20.3226 222.038 -22.0801 220.154 -23.1547C215.602 -25.7845 212.29 -25.6202 212.669 -28.6419C212.783 -29.5396 213.427 -29.9063 214.211 -30.2729C215.425 -30.8419 216.538 -30.4246 217.638 -30.1086C222.935 -28.5787 222.657 -25.0007 226.349 -23.3444C228.031 -22.5858 229.864 -24.3306 229.434 -25.9363C228.435 -29.6028 226.185 -28.5155 224.832 -31.9039C223.555 -35.1027 228.157 -38.175 229.598 -36.0636C233.328 -30.5764 232.784 -21.8525 237.26 -23.6099C239.233 -24.3811 242.14 -25.6328 241.749 -27.7063C241.407 -29.4638 240.231 -29.6534 238.36 -30.1086C235.3 -30.8545 235.161 -33.4843 236.603 -35.5452C237.235 -36.4682 237.981 -37.3152 238.6 -38.2382C240.535 -41.083 239.498 -42.1577 240.244 -45.4449C240.863 -48.1759 243.961 -46.684 244.34 -46.2414C245.858 -44.4208 248.74 -44.2312 250.384 -43.1438C251.383 -42.4864 251.813 -40.9692 251.332 -40.0715C250.852 -39.1865 249.322 -38.6428 248.26 -38.921C247.539 -39.1106 246.819 -39.3382 246.085 -39.3761C240.851 -39.6037 239.801 -31.7395 244.163 -32.8901C246.806 -33.5855 247.577 -34.8751 249.145 -33.3326C250.422 -32.0683 248.841 -29.9063 247.628 -28.604C244.543 -25.2915 245.339 -21.6249 240.08 -20.2594C239.119 -20.0065 238.082 -19.9686 237.285 -19.2227C236.11 -18.1227 235.781 -16.5423 236.641 -15.1894C237.753 -13.4447 240.004 -10.8528 241.407 -9.37352C242.545 -8.1724 244.062 -8.00803 245.579 -8.23561C246.97 -8.45054 247.704 -10.4355 246.793 -11.4976C246.186 -12.2056 243.86 -13.5079 242.874 -14.1906C241.445 -15.1768 242.204 -17.3894 243.999 -17.5917C247.248 -17.9583 250.169 -15.0251 251.446 -12.4458C252.951 -9.38615 253.38 -7.83102 255.821 -7.04713C258.071 -6.32646 261.472 -9.38614 263.255 -11.5482C265.063 -13.7354 266.858 -14.6205 269.88 -13.7481C271.372 -13.3182 272.661 -12.8125 275.721 -9.38615C280.349 -4.1771 285.001 -11.2068 289.894 -13.0906C293.22 -14.3676 294.926 -9.71488 292.423 -8.02067C290.476 -6.70576 287.012 -6.89542 285.431 -6.14946C282.574 -4.79663 283.421 -0.346169 288.971 -2.16681C292.044 -3.17827 293.409 -0.535831 295.736 1.51239C298.53 3.97784 302.474 4.36978 304.687 1.1963C307.266 -2.49555 308.139 -5.55523 312.134 -4.96099C314.005 -4.68284 315.067 -1.74957 313.79 -0.169159C311.83 2.24572 305.711 3.11809 304.573 9.55354C304.409 10.4512 303.928 11.3363 303.448 12.1454C302.449 13.8396 299.706 13.473 299.529 10.6788C299.503 10.3121 299.63 9.94549 299.693 9.57883C299.895 8.35243 298.972 6.82259 297.784 6.79731C297.012 6.78466 296.203 7.23982 295.457 7.58119C294.876 7.84669 293.788 9.93286 290.906 11.0708C287.998 12.2213 287.644 15.2683 287.796 15.812C289.11 20.3383 284.748 20.6418 282.536 26.2048C281.626 28.4933 279.388 27.8232 278.692 26.2554C277.302 23.0566 275.329 22.9808 273.433 21.944C271.865 21.0969 271.549 19.4154 272.737 18.1004C275.317 15.243 277.036 17.8729 278.933 19.1498C280.513 20.2119 282.346 19.7441 283.295 18.0878C285.242 14.6867 281.765 14.2442 279.653 12.8914C278.149 11.9305 279.742 9.30069 281.436 8.83288C284.015 8.11221 286.266 8.73173 288.314 8.03635C291.449 6.98695 292.259 4.53414 291.513 3.40889C290.248 1.49974 287.707 2.92845 285.229 3.38361C283.56 3.68705 282.018 1.85377 281.398 0.298637C279.603 -4.24031 274.988 -1.80016 272.092 -6.61726C270.563 -9.15857 268.628 -9.57581 266.985 -8.71606C263.874 -7.07243 263.204 -4.36675 257.717 -1.97717C255.176 -0.864552 251.724 4.11692 248.184 5.78584C245.933 6.83523 244.593 8.52943 243.708 10.742C241.142 17.1648 236.148 11.096 232.43 17.4304C226.754 27.0899 224.92 20.8567 219.762 26.1795C218.295 27.6841 216.626 28.8978 214.755 29.8714C212.58 30.9966 209.698 30.0231 208.712 27.9117C206.246 22.652 205.601 20.5153 204.35 19.0993C203.363 17.974 201.454 17.9866 200.316 19.0993C199.469 19.9211 198.736 20.844 198.003 21.767C196.081 24.1819 192.566 23.2589 192.225 21.4256C191.517 17.6706 197.333 18.6062 197.054 16.0016C196.688 12.5879 191.023 14.4844 190.897 9.1616C190.821 5.73526 192.768 4.58473 192.882 0.184853C192.92 -1.20591 193.527 -4.05066 193.489 -5.36557C193.451 -6.87012 194.222 -8.28619 196.195 -8.77928C196.801 -8.931 197.484 -8.77928 198.129 -8.81721C199.962 -8.91835 201.176 -10.4355 200.645 -12.1677C197.977 -20.8031 194.488 -18.856 194.804 -22.257C194.93 -23.6099 195.575 -24.2294 196.928 -24.3811C198.989 -24.6214 200.316 -23.6731 201.176 -21.903C205.222 -13.5079 203.869 -10.9539 209.255 -11.839C211.139 -12.155 211.797 -11.3585 212.542 -9.81602L212.505 -9.84131ZM244.189 2.3595C246.401 1.72734 244.732 2.83994 250.814 -1.522C252.103 -2.44497 252.141 -4.82191 251.32 -5.56786C250.675 -6.14946 248.917 -6.28853 247.855 -5.46672C247.564 -5.23914 247.324 -4.92306 247.033 -4.68283C244.935 -2.9507 243.62 -2.52082 241.432 -3.91159C240.99 -4.18974 240.522 -4.49318 240.155 -4.87248C230.117 -15.2906 232.949 -13.786 231.394 -18.4009C230.837 -20.0445 229.105 -20.6008 227.816 -19.4755C225.287 -17.2882 221.911 -14.3929 220.988 -11.9401C219.294 -7.47702 222.695 -4.39203 224.806 -1.57257C225.514 -0.636963 225.552 0.273354 224.908 1.34804C223.201 4.18014 216.083 1.47446 214.894 10.0087C214.616 12.0569 216.563 14.8258 218.333 13.9029C220.925 12.55 219.307 10.3754 221.077 7.92256C223.163 5.02724 227.588 8.226 225.123 12.0064C224.452 13.0305 223.593 13.9534 222.695 14.7752C219.534 17.6579 223.555 21.3877 226.197 18.2522C229.965 13.7891 232.607 12.2339 229.661 7.69497C228.599 6.05134 228.663 4.39507 229.535 2.70086C229.636 2.51121 229.813 2.37215 229.927 2.1825C232.203 -1.42085 229.383 -3.2415 226.931 -6.11154C222.746 -10.9919 227.322 -13.8113 228.84 -11.839C234.795 -4.07596 230.799 -5.45408 241.9 1.43653C242.596 1.8664 243.455 2.05605 244.201 2.34685L244.189 2.3595ZM195.461 7.89727C196.068 8.9846 196.397 10.2869 199.153 11.5638C204.919 14.2569 208.32 14.9902 210.267 20.5659C211.417 23.8784 212.859 25.8761 215.943 24.1692C216.361 23.9417 216.652 23.5118 217.018 23.1957C218.712 21.8176 218.447 19.5923 216.348 18.7073C211.303 16.5706 212.644 12.2213 207.561 10.5144C202.63 8.84553 202.554 7.01224 199.292 5.53297C197.522 4.73645 195.664 5.92492 195.449 7.88463L195.461 7.89727ZM233.594 5.50768C233.379 8.28922 236.464 11.3742 238.992 9.32597C240.484 8.12486 240.788 7.13868 240.193 5.74791C238.537 1.89169 233.265 1.65147 233.594 5.50768Z" fill="black" fill-opacity="0.04"/>
<path d="M229.042 62.883C229.611 59.6337 229.586 57.4085 232.658 55.6764C242.747 49.9742 239.435 48.4191 237.475 43.6652C237.108 42.7928 237.589 41.1492 238.246 40.5929C239.637 39.4297 241.963 40.34 242.671 43.3365C243.253 45.7766 243.847 47.8501 247.375 49.203C253.975 51.7316 254.506 51.9719 256.061 53.6914C257.818 55.6384 255.188 58.4705 253.178 57.2315C252.293 56.6878 246.793 53.4638 245.82 53.0718C242.406 51.719 241.723 55.7143 237.88 57.674C235.503 58.8878 233.227 60.1015 233.454 62.3394C233.644 64.1474 235.035 65.0071 237.007 64.1474C239.877 62.8957 242.621 57.6866 246.97 59.2544C248.02 59.6337 249.056 60.0004 250.106 60.367C252.634 61.2521 253.292 63.7554 253.001 65.6646C252.242 70.5702 256.592 71.4932 256.63 76.8539C256.655 82.3917 255.049 83.5043 256.63 86.7916C257.161 87.9042 258.02 88.2329 259.285 88.1191C260.423 88.018 260.549 87.0697 260.802 86.3111C261.042 85.6157 260.6 84.0985 260.6 83.479C260.625 80.5458 263.925 80.8366 264.671 82.5687C265.442 84.3893 265.354 86.1847 265.366 86.2985C265.973 91.5834 273.496 87.4617 270.714 83.4917C267.933 79.509 265.594 78.2194 262.484 76.5125C260.612 75.4884 260.359 72.5426 261.915 71.3288C263.052 70.4438 264.114 69.4449 265.139 68.4335C266.099 67.4852 266.036 66.0439 265.088 65.1715C264.342 64.4888 262.926 64.4508 262.155 65.1589C259.904 67.2197 259.462 68.4335 258.096 67.6622C257.173 67.1312 256.491 65.9428 256.706 64.8554C257.186 62.39 258.324 60.5441 260.992 59.836C263.571 59.1533 264.241 59.9877 269.652 63.4014C270.55 63.9704 271.473 64.5014 272.333 65.1209C274.065 66.36 274.874 68.3576 276.201 69.938C278.49 72.669 282.005 75.9563 282.94 77.0056C286.101 80.5205 288.895 82.5687 295.584 83.8583C300.325 84.7687 298.732 88.8524 302.575 91.1915C305.8 93.1512 307.86 94.5672 308.404 98.12C309.024 102.204 303.865 107.451 299.642 105.731C297.038 104.669 294.484 103.455 292.006 102.141C289.629 100.864 289.806 99.1694 290.248 97.2097C290.691 95.2373 291.829 93.7328 293.776 92.9362C294.673 92.5696 296.14 91.3558 295.849 90.18C295.407 88.372 293.89 88.4352 289.907 87.0697C288.971 86.7536 287.252 85.502 286.228 85.1859C281.297 83.6813 280.728 80.2423 276.783 77.0689C270.955 72.3655 272.51 69.6725 269.399 69.5714C267.124 69.4955 265.101 72.4288 268.615 75.6781C276.29 82.7837 272.055 78.9907 275.405 81.8354C277.479 83.5928 278.25 85.9571 275.847 88.4858C274.406 90.003 272.535 90.7995 270.891 91.9627C268.616 93.5684 269.488 96.1729 271.574 96.2235C277.668 96.4005 277.984 98.7775 280.02 98.0694C281.878 97.4246 282.321 95.8189 280.981 94.3649C280.399 93.7328 279.83 93.088 279.35 92.3926C278.237 90.7616 279.893 89.4088 281.803 88.9157C284.306 88.2582 288.63 90.1547 286.771 93.7833C285.014 97.2097 286.341 97.9936 285.267 100.737C284.698 102.191 283.459 102.924 281.891 102.722C280.475 102.545 279.046 102.305 277.668 101.938C274.33 101.041 270.246 101.584 266.567 99.4855C264.797 98.474 265.177 97.374 265.139 94.0994C265.139 93.7833 265.139 93.442 265.05 93.1385C264.785 92.2029 263.773 91.3305 262.989 91.3305C262.155 91.3305 260.663 92.5822 260.562 93.6316C260.448 94.7695 260.107 95.8316 260.423 97.0833C261.396 100.902 257.919 104.088 253.949 109.082C252.521 110.877 250.548 110.953 248.513 110.713C246.616 110.498 244.517 110.043 243.013 108.892C242.128 108.209 242.178 107.008 242.987 106.237C244.682 104.619 246.389 105.693 247.792 105.946C252.268 106.743 255.087 101.331 256.061 96.9695C256.541 94.8201 257.54 90.9007 255.479 90.1294C253.621 89.434 252.242 91.3179 252.065 93.3029C251.8 96.2362 251.787 97.8924 249.941 99.8142C247.122 102.722 244.593 100.143 241.698 101.028C240.648 101.344 239.865 101.862 239.397 102.836C239.093 103.455 238.701 104.075 238.588 104.732C238.17 107.198 236.893 109.056 234.807 110.397C233.657 111.143 231.608 113.595 227.487 112.445C223.972 111.471 219.079 109.878 219.408 106.275C219.509 105.175 220.166 104.416 221.241 104.568C224.402 105.011 224.035 107.173 227.702 107.754C232.392 108.5 236.539 104.48 233.05 99.0303C229.636 93.7075 233.998 90.7489 232.746 88.5364C232.064 87.3352 230.521 86.918 229.51 87.841C227.98 89.2318 226.64 91.8489 224.035 92.6328C219.977 93.8592 220.166 96.9189 218.561 100.042C217.815 101.496 216.512 101.888 215.008 101.749C211.531 101.433 210.406 100.396 206.233 103.316C203.401 105.301 200.607 102.356 202.453 100.459C209.065 93.6822 213.415 99.3843 215.842 95.2626C216.196 94.6684 216.614 94.0615 216.765 93.404C217.701 89.4467 220.634 89.8639 223.795 86.5134C225.211 84.9962 226.829 83.9342 228.941 83.517C231.242 83.0618 232.784 81.5952 233.429 79.2435C233.695 78.2826 234.162 77.3723 234.516 76.4241C235.149 74.7299 236.489 73.8701 238.082 73.2379C241.066 72.0621 242.722 70.469 246.287 70.3173C248.462 70.2162 250.46 68.1553 248.867 65.6014C248.197 64.5267 246.464 63.9451 245.213 64.2738C243.481 64.729 240.067 67.6117 238.019 68.6358C233.783 70.7472 228.991 67.9025 229.029 62.9589L229.042 62.883ZM251.926 77.6757C251.825 76.8919 251.85 76.2723 251.661 75.7287C250.485 72.3908 246.452 74.9322 244.441 75.3241C241.913 75.8172 239.852 77.0309 238.259 79.0033C232.987 85.5019 239.688 86.1974 236.16 94.2006C234.883 97.0959 238.044 99.5234 239.422 97.3361C240.269 95.9833 240.889 91.7478 242.975 93.7328C244.429 95.1109 244.644 96.5143 246.477 96.4005C248.538 96.2741 249.423 91.9753 245.921 89.9271C245.794 89.8513 242.381 88.2329 241.521 86.1973C240.484 83.7319 241.319 81.9998 243.177 80.3561C243.936 79.686 244.833 79.4205 245.706 79.7619C247.4 80.432 246.692 82.4296 246.894 84.7939C247.21 88.4732 252.887 88.1571 252.078 83.6181C251.218 78.8263 251.661 79.0412 251.926 77.6757ZM303.031 97.0833C298.745 91.1788 293.75 97.0327 296.443 99.574C300.565 103.455 305.395 100.333 303.031 97.0833Z" fill="black" fill-opacity="0.04"/>
<path d="M160.743 82.771C161.603 82.6066 162.437 82.6825 163.006 81.9365C164.548 79.9262 162.386 78.5228 160.553 76.639C159.251 75.3114 159.011 72.7322 160.022 71.1518C161.552 68.7495 162.703 67.3967 161.603 65.0324C161.16 64.0715 160.793 63.1991 160.781 62.3141C160.755 59.9119 163.562 58.8372 165.573 62.9715C166.786 65.4749 170.01 67.9277 172.172 69.6599C173.449 70.684 174.891 70.861 176.395 70.3679C179.973 69.2047 183.197 70.7345 184.639 72.8839C186.004 74.9321 184.082 77.0689 181.781 76.1459C177.078 74.2621 176.623 74.0597 171.034 79.4458C169.998 80.4446 169.391 81.6458 169.391 83.1377C169.391 84.8319 168.367 86.4249 166.622 86.3617C165.117 86.3111 163.208 85.9318 162.639 86.0962C157.279 87.5502 155.104 84.048 151.045 86.033C148.681 87.1962 145.672 89.1812 144.711 85.7422C144.496 84.9836 145.103 83.4285 145.963 83.0239C149.414 81.3803 152.386 81.9871 152.348 79.7366C152.335 78.5987 152.171 77.6631 150.982 77.0942C150.059 76.639 149.098 76.4999 148.175 76.7148C143.459 77.8148 142.498 79.7366 141.512 81.6078C140.438 83.6308 139.022 85.6031 137.037 84.225C135.317 83.0365 135.81 81.1653 137.087 79.5217C140.147 75.6022 137.087 74.1103 137.087 68.345C137.074 62.0992 130.197 63.9704 130.31 57.0671C130.386 52.1742 129.526 52.1741 126.391 48.9248C123.951 46.3961 127.655 42.9951 130.361 46.2571C131.79 47.9766 133.61 48.9501 135.785 49.4053C136.986 49.6581 138.92 50.6317 139.034 50.6822C140.905 51.365 142.182 50.442 142.321 48.4444C142.511 45.8904 143.295 43.564 142.726 41.971C142.069 40.0745 139.843 39.7331 138.554 41.2883C138.187 41.7308 137.922 42.2744 137.618 42.7675C136.329 44.841 133.206 44.7525 131.916 41.6676C131.436 40.5044 131.815 39.101 132.902 38.5194C142.359 33.4873 140.678 35.3332 146.443 39.1262C152.284 42.9824 156.077 27.4565 166.217 32.6529C167.305 33.2092 170.364 33.9551 172.792 36.7746C174.461 38.709 176.762 39.6446 178.304 37.5964C180.188 35.0677 177.268 33.2724 176.18 31.6035C174.891 29.6311 176.13 28.2403 178.153 27.8358C179.733 27.5197 181.604 28.9736 183.02 27.3553C183.867 26.3944 183.969 26.0025 183.425 25.0795C182.515 23.5117 180.909 22.0072 182.3 19.3774C183.425 17.2533 183.046 16.305 183.121 13.2454C183.197 10.1983 186.573 10.4765 187.521 12.1327C189.911 16.2798 186.877 17.8349 187.218 21.6785C187.483 24.5991 188.508 24.5611 192.414 27.153C194.096 28.2656 194.829 30.4782 194.463 32.4379C194.083 34.5494 192.92 36.2815 192.06 38.1527C191.58 39.1895 190.53 39.6573 189.506 39.9734C188.722 40.2136 188.04 39.7331 187.547 39.1136C186.257 37.47 187.231 36.7493 188.862 34.1827C189.089 33.8287 189.355 33.4747 189.519 33.0954C191.036 29.4288 186.383 28.2909 185.018 30.1495C183.298 32.5138 183.033 33.8919 183.02 36.2056C182.995 39.594 179.923 42.9698 177.786 43.6525C174.638 44.6514 174.107 43.3238 165.282 37.3562C162.943 35.7758 160.692 35.447 159.782 37.8619C159.693 38.1021 159.731 38.4056 159.63 38.6458C159.011 40.163 158.846 41.1365 156.57 41.0101C154.687 40.909 153.751 41.1618 153.372 42.5905C152.917 44.2468 155.243 45.3468 156.052 46.5732C157.987 49.4938 153.764 51.7316 152.006 49.2283C151.374 48.3306 150.565 46.118 149.781 45.2203C147.24 42.2997 143.586 48.672 148.529 52.073C152.651 54.9051 153.637 53.9821 155.053 57.9774C157.304 64.2991 157.797 66.9289 156.039 69.1036C154.396 71.1518 152.992 72.4414 154.307 74.8563C155.951 77.878 156.583 80.255 158.669 82.0124C159.188 82.4549 160.009 82.5308 160.692 82.771H160.743ZM140.741 65.0703C141.5 67.2576 141.98 69.4702 141.879 71.7966C141.828 72.8966 143.055 74.6161 144.875 73.6046C147.771 71.9989 149.958 69.6093 151.602 68.2312C152.398 67.5611 152.626 66.6128 152.917 65.7278C153.157 64.9945 152.664 64.1095 151.968 63.7049C150.173 62.6681 148.921 64.8175 147.67 65.6393C146.039 66.7014 143.889 65.1968 144.749 63.0727C145.634 60.8854 146.355 61.3026 148.656 59.8107C149.781 59.0774 149.655 57.4591 148.909 56.6752C147.341 54.9936 144.66 54.5764 143.27 56.3591C140.45 59.9624 140.147 63.3382 140.754 65.083L140.741 65.0703ZM168.455 76.6137C170.503 74.9069 170.074 72.3276 167.659 71.0507C166.23 70.3047 163.992 70.7598 163.878 73.2379C163.739 76.3355 166.938 77.8654 168.443 76.6137H168.455ZM136.202 53.6534C132.687 53.6534 133.016 59.0016 136.455 58.9383C139.388 58.8751 139.578 53.6534 136.202 53.6534Z" fill="black" fill-opacity="0.04"/>
<path d="M54.0962 -51.0586C50.9733 -53.1953 49.8986 -53.2332 47.5723 -57.6205C46.8895 -58.8974 46.1942 -60.1491 44.7528 -60.7813C41.0863 -62.3744 38.0139 -57.1906 35.7381 -54.6872C31.9072 -50.477 30.6808 -52.6264 28.3923 -46.5576C27.482 -44.1427 25.1809 -44.0921 24.258 -45.9001C23.8155 -46.7599 22.3488 -52.8034 18.6317 -50.5149C7.46764 -43.6496 13.1698 -41.5761 7.06304 -35.6843C1.01953 -29.8557 2.48615 -28.4017 4.35737 -25.9237C7.986 -21.0939 11.1721 -22.0927 -0.0677967 -9.48734C-5.69408 -3.17831 -6.92048 -10.5494 -9.9043 -12.4712C-10.7893 -13.0401 -11.7882 -12.9516 -12.4077 -12.3447C-13.1536 -11.6114 -13.8364 -10.8149 -13.1789 -9.67697C-11.1686 -6.14948 -11.5606 -7.33797 -10.2077 -5.77019C-7.18598 -2.25535 -14.418 2.82728 -17.2754 -8.21034C-18.034 -11.1562 -15.0754 -14.1148 -17.6799 -18.0216C-19.3868 -20.5882 -21.6626 -22.472 -24.2165 -24.0272C-25.2912 -24.6846 -25.5694 -25.6329 -25.9107 -26.6064C-26.2015 -27.4282 -24.9625 -29.0845 -24.0142 -29.2109C-20.9925 -29.6408 -21.1948 -27.896 -17.6167 -24.3179C-15.8593 -22.5732 -14.5823 -20.4744 -13.0904 -18.5147C-12.3824 -17.5791 -10.5997 -17.2503 -9.77786 -17.794C-8.57675 -18.5905 -8.19744 -19.9686 -8.86754 -21.3088C-9.96751 -23.4961 -12.2307 -24.6087 -14.595 -26.8466C-15.5053 -27.7064 -15.6823 -29.4511 -14.6203 -30.096C-13.2421 -30.9304 -11.4594 -30.3235 -10.4227 -29.3121C-7.33769 -26.2777 -6.55382 -24.7099 -4.05044 -25.4306C-2.01486 -26.0122 -1.81256 -28.3638 -1.39533 -31.512C-0.990744 -34.6096 2.19536 -36.4935 3.23211 -37.6187C6.45616 -41.1083 6.27915 -42.8278 6.88603 -45.0783C7.92279 -48.9345 10.8687 -49.7816 15.3191 -53.916C22.5258 -60.6043 23.9672 -47.6828 31.0601 -56.1539C39.038 -65.6743 36.3197 -61.6031 39.8598 -65.1938C41.3138 -66.6604 43.2483 -71.2373 45.385 -75.0303C46.9022 -77.7486 49.9113 -76.5855 50.1009 -74.1959C50.2779 -71.8695 48.0274 -69.8466 46.3964 -68.2409C44.462 -66.3317 46.0551 -63.2973 48.2929 -64.1444C51.5296 -65.3708 52.7434 -67.8489 57.6363 -65.6363C60.9362 -64.1444 62.8201 -61.1227 67.0936 -62.6399C70.5831 -63.8916 71.0509 -67.3305 73.1244 -69.2523C76.0956 -72.0212 78.8266 -70.2385 80.938 -72.8051C82.6449 -74.8786 81.4817 -77.3188 80.4449 -82.6163C79.9518 -85.1323 80.9127 -81.9968 79.1806 -89.0138C78.776 -90.6448 80.5208 -93.0471 82.7713 -91.4161C85.2999 -89.5828 84.7184 -86.4346 84.7942 -84.4749C84.8954 -81.5669 86.0459 -74.5625 88.1321 -72.527C90.3952 -70.327 91.5457 -67.3811 93.3537 -64.8904C96.5651 -60.4779 90.2435 -57.2665 88.4734 -62.7789C87.3355 -66.3317 87.7275 -67.7857 85.6287 -69.5558C84.7183 -70.327 82.6449 -69.8971 82.8345 -68.2788C82.8724 -67.9374 83.1379 -65.2444 83.1506 -64.6122C83.1506 -63.1077 81.1782 -62.5514 80.3185 -63.5249C79.8886 -64.0053 79.3576 -64.4099 78.9656 -64.9157C77.3094 -67.0397 75.4761 -66.0283 74.7554 -64.2456C73.6807 -61.5905 73.3899 -58.2906 68.9774 -58.24C65.2476 -58.2021 62.9592 -56.1918 61.1259 -53.2964C59.9754 -51.4885 59.8995 -49.6046 60.5317 -47.6196C62.3902 -41.6772 55.8157 -39.2244 55.7146 -43.4094C55.6387 -46.5323 57.1433 -48.9598 54.0962 -51.0586ZM2.75168 -20.8031C2.56203 -23.2306 -0.13101 -23.8754 -1.58499 -22.4847C-2.39417 -21.7134 -3.17804 -20.879 -3.78492 -19.956C-4.59409 -18.7296 -5.75729 -17.7181 -6.07338 -16.1756C-6.28831 -15.1642 -5.98486 -13.8366 -5.25155 -13.3688C-4.32859 -12.7872 -2.95047 -12.8884 -2.17923 -13.7228C2.92867 -19.3744 1.92986 -18.6917 2.76431 -20.8031H2.75168ZM54.602 -61.7548C49.1527 -61.7548 52.2629 -55.0412 56.587 -55.1803C58.6858 -55.2435 59.7478 -57.0009 59.0145 -58.9733C58.2306 -61.0847 56.4605 -61.4514 54.602 -61.7548Z" fill="black" fill-opacity="0.04"/>
<path d="M202.365 48.0524C202.226 46.2444 204.425 44.0066 206.17 43.6652C208.193 43.2606 210.039 43.8801 211.948 44.2088C218.864 45.3973 218.194 46.1812 226.4 38.4309C228.435 36.5091 230.926 38.0768 233.176 35.624C234.226 34.4735 235.338 33.4114 236.742 32.6655C239.802 31.0345 243.531 24.2703 246.085 27.1277C246.958 28.1013 247.084 28.607 246.566 29.7196C246.199 30.5035 245.668 31.1104 244.947 31.654C240.042 35.3459 238.196 38.2412 234.555 38.4814C233.783 38.532 232.86 39.0251 232.342 39.6193C230.787 41.3767 228.726 42.4514 226.956 43.9054C221.14 48.7099 219.484 50.0753 221.747 52.7178C223.77 55.0821 225.919 55.7269 225.375 59.7348C224.996 62.5796 225.59 64.514 221.759 67.5231C220.343 68.6358 218.826 69.6346 217.36 70.6966C211.834 74.7172 211.683 64.8933 205.235 70.5575C201.088 74.1988 200.19 84.6928 198.42 88.6375C197.51 90.6731 194.21 90.5467 194.134 87.7272C194.071 85.5652 194.728 83.5549 191.668 81.7975C185.283 78.1309 192.781 72.8839 186.7 68.4967C180.58 64.0715 180.568 64.4887 178.557 64.7922C175.75 65.222 174.423 65.6267 171.844 63.3129C168.316 60.1521 168.582 59.7475 167.848 58.5717C167.317 57.7246 167.684 57.0165 168.278 56.4349C168.86 55.8533 169.568 55.4614 170.415 56.0051C171.161 56.4855 172.071 56.8395 172.628 57.497C174.461 59.659 176.762 60.4429 179.493 60.2406C182.742 59.9877 185.132 59.8992 184.727 56.6246C184.474 54.5385 181.895 53.6534 180.416 54.0453C174.79 55.5499 172.476 51.7443 167.874 49.734C166.002 48.9248 164.359 49.3547 164.232 51.719C163.815 59.5326 158.96 57.6866 158.834 54.6017C158.72 51.896 160.895 50.2144 161.109 46.0548C161.147 45.3468 162.146 42.0216 164.966 43.071C165.699 43.3491 166.47 43.6778 167.064 44.1836C169.163 45.9663 171.692 47.0157 174.006 48.4191C176.623 49.9995 179.632 50.2271 181.465 47.6605C183.159 45.2835 183.956 42.9824 187.698 43.6778C190.556 44.2088 192.895 45.7766 195.36 47.1421C197.206 48.1662 198.205 49.7972 198.597 51.8581C200.013 59.267 206.36 51.5546 211.417 57.7499C213.048 59.7349 212.972 61.3153 212.846 63.983C212.72 66.6634 215.476 67.068 216.765 65.9174C220.027 62.9968 220.533 61.4796 220.811 60.9865C221.595 59.5705 220.659 57.2568 218.472 57.2568C217.119 57.2568 214.73 57.4717 214.287 55.9924C214.022 55.12 214.464 53.8936 215.273 53.2615C215.691 52.9327 216.184 52.6672 216.513 52.2753C217.739 50.8466 217.271 49.3041 215.463 48.8616C212.998 48.2547 211.784 49.203 207.055 50.5937C203.97 51.504 203.212 49.6202 202.377 48.0904L202.365 48.0524ZM195.74 62.5037C196.903 62.2762 197.522 63.0095 198.028 63.9956C199.545 66.9415 193.034 67.0174 193.375 72.808C193.426 73.6931 192.541 77.3091 194.374 78.8516C196.144 80.3435 198.18 78.0044 198.015 75.8045C197.712 71.7713 201.176 67.6243 203.465 66.0186C205.184 64.8048 209.015 64.9312 208.383 61.6187C208.041 59.8107 204.805 59.4567 203.566 59.8486C200.531 60.8222 195.461 58.8372 194.703 55.4235C194.551 54.7534 194.286 54.1086 194.146 53.4385C193.502 50.3788 189.898 48.3306 187.762 48.1409C185.473 47.926 184.651 50.3535 185.815 51.5293C188.191 53.9063 187.774 53.1856 189.342 54.7028C191.416 56.7005 190.467 58.9383 188.229 60.7463C185.296 63.1106 188.027 66.36 190.556 65.1968C192.617 64.2485 193.792 62.2761 195.74 62.4911V62.5037Z" fill="black" fill-opacity="0.04"/>
<path d="M1.46214 12.2719C2.22074 15.8879 -5.51698 19.4154 -4.07564 24.2704C-2.49523 29.5932 -3.06418 32.1598 0.526527 34.6126C11.1849 41.8573 8.73204 36.5724 15.2434 33.4242C17.8605 32.1598 19.7697 32.9058 21.4133 34.9414C23.0822 37.0022 21.4386 36.7241 26.4201 41.5412C27.3177 42.4136 28.1143 43.2354 27.6212 44.4618C26.8626 46.333 24.7764 45.7641 22.7156 45.8779C18.8341 46.1054 20.2122 51.6053 24.7385 50.4421C31.6923 48.6467 35.9531 57.5603 37.7358 59.2545C39.7967 61.2015 41.8576 62.8073 44.0322 61.0119C45.2965 59.9625 45.2586 57.9649 42.1863 56.5994C37.3439 54.4374 38.6209 51.5294 41.099 51.4662C42.73 51.4156 45.8402 53.5903 47.6482 54.6397C50.9228 56.5615 50.9102 60.089 48.0654 62.2763C44.9046 64.6911 44.0828 68.2565 43.5518 69.091C42.4644 70.8358 40.2645 70.8105 39.2278 67.0048C38.0772 62.7314 34.8405 63.9578 31.1234 58.0281C28.6579 54.1087 23.1834 52.5156 17.987 57.1178C7.60678 66.2968 11.3871 61.8843 1.46214 65.0325C-2.07799 66.1577 -2.59637 61.1636 0.0334396 59.8866C1.27248 59.2924 2.44831 58.8878 3.96551 59.1786C7.21485 59.7981 10.0343 58.635 12.4239 56.3592C13.448 55.3856 15.1801 54.1719 15.648 53.742C19.5674 50.2524 14.8135 49.0892 13.4986 47.9008C12.5377 47.041 12.6641 45.6503 13.7641 45.0687C15.079 44.3733 17.4559 44.171 18.3536 43.8802C19.403 43.5515 20.4903 42.2492 20.3007 41.3895C20.0731 40.3274 19.8076 39.2275 18.5812 38.6838C13.1699 36.2689 10.1734 46.6365 5.73559 43.425C0.75412 39.8091 4.26895 41.3515 -2.00214 38.1022C-5.02389 36.5344 -6.32615 35.8643 -6.86981 31.6415C-7.1606 29.3909 -7.38819 27.1278 -8.37437 25.0037C-9.84099 21.8555 -14.0133 21.8682 -15.7834 23.8152C-16.9845 25.1301 -20.6637 30.3266 -22.813 32.7035C-23.8119 33.7908 -25.1647 34.5494 -26.2141 35.5988C-27.7566 37.1666 -30.1209 40.6182 -31.5117 41.7182C-32.5358 42.54 -34.0909 42.2998 -34.8116 41.4274C-37.6184 38.0263 -31.8277 37.0528 -19.8671 22.4371C-17.0983 19.0487 -18.8304 15.7614 -21.6499 14.712C-22.32 14.4592 -24.9498 14.2695 -25.8601 13.9787C-30.9933 12.3983 -23.205 3.26984 -16.327 13.5362C-14.3167 16.5453 -12.3317 20.5027 -7.96979 18.1131C-2.57109 15.1546 -3.92392 10.5397 -2.11592 9.12369C-0.51022 7.872 1.01963 9.36392 1.4495 11.0834C1.53801 11.4374 1.46214 11.842 1.46214 12.2845V12.2719Z" fill="black" fill-opacity="0.04"/>
<path d="M277.339 61.8716C277.516 60.3418 277.491 59.128 277.845 58.0281C278.945 54.5511 275.266 49.2789 277.504 47.041C280.829 43.7285 280.88 44.9043 282.662 42.8687C284.761 40.4791 282.194 37.6723 279.577 38.9998C278.3 39.6447 276.353 41.3389 275.089 42.3124C269.235 46.864 272.623 52.1995 273.736 56.5994C273.964 57.5223 273.104 59.1786 272.295 59.4188C266.542 61.113 270.778 48.1662 263.634 54.6143C262.319 55.8028 260.802 55.4867 260.284 53.8431C259.588 51.6811 260.777 49.2283 256.895 47.8375C254.999 47.1548 253.064 46.5985 251.18 45.8905C245.971 43.9307 243.493 35.6367 248.07 34.385C249.082 34.1069 250.46 35.0172 250.725 36.193C251.357 39.0251 250.75 39.8849 251.977 41.1998C253.899 43.2606 255.353 43.1721 259.399 43.3744C263.04 43.5641 262.167 46.9525 264.077 48.4318C266.352 50.1892 269.968 46.51 267.376 41.9331C266.896 41.0986 266.049 40.4538 265.303 39.7964C262.092 36.9896 256.061 41.2377 255.416 37.3436C255.239 36.2436 255.416 35.8137 256.478 35.2827C257.085 34.9793 257.755 34.739 258.425 34.6632C263.634 34.0563 263.697 28.0254 260.486 26.8875C259.651 26.5967 258.223 27.1783 257.591 28.1013C257.135 28.7588 256.769 29.4794 256.263 30.0863C255.049 31.5276 253.355 32.5644 251.964 31.2874C249.828 29.3277 252.508 27.4186 254.139 22.9428C254.999 20.6038 256.794 19.8452 259.335 22.2601C261.295 24.1313 263.672 23.2842 266.264 21.9187C267.136 21.4635 267.743 21.9187 268.236 22.4624C268.679 22.9428 269.197 23.4738 268.742 24.3083C266.049 29.3277 266.137 32.5517 267.389 35.6367C268.679 38.8102 272.661 39.5056 275.38 37.1918C276.48 36.2562 277.542 35.2701 278.616 34.2965C280.121 32.931 282.232 32.4885 283.787 34.3724C285.115 35.9781 286.531 37.5079 287.846 39.1263C288.933 40.4665 289.262 42.4641 288.478 43.3618C284.85 47.5594 280.981 48.2168 282.055 53.3627C283.282 59.1786 280.69 62.1751 284.47 65.829C287.049 68.3324 289.73 70.7219 292.41 73.1242C294.635 75.1218 297.822 73.6173 299.832 74.4138C302.462 75.4632 301.741 78.4217 299.44 79.2815C297.291 80.078 290.906 78.7758 287.252 74.692C281.423 68.1807 279.223 69.091 277.352 61.9095L277.339 61.8716Z" fill="black" fill-opacity="0.04"/>
<path d="M93.1894 37.3814C98.7272 40.8078 101.218 38.3676 103.721 42.287C104.707 43.8169 108.007 45.9536 105.605 49.5569C103.456 52.7557 105.984 53.2614 108.071 54.0959C109.563 54.6901 109.967 56.4602 108.88 57.636C108.753 57.7751 106.313 60.1773 103.468 63.3888C101.395 65.7404 99.5111 65.2094 97.4629 66.499C95.8192 67.5358 96.2112 70.1276 98.5249 70.2793C100.573 70.4184 102.76 69.6851 106.098 72.5425C111.105 76.8286 114.784 76.2976 117.894 84.0606C118.147 84.6801 118.173 85.4261 118.147 86.0962C118.109 87.1708 117.452 87.8662 116.478 88.2329C114.784 88.8777 113.849 86.8168 113.09 85.287C111.611 82.2652 112.875 83.1123 109.196 80.2423C105.099 77.0435 102.988 74.8815 99.3846 74.7045C97.8801 74.6287 92.5572 71.9483 91.2803 71.1644C89.1183 69.8368 89.9401 68.1553 91.3182 66.7519C99.2076 58.6854 103.254 60.1394 102.293 56.1441C101.521 52.9454 94.7698 56.1188 93.2021 51.1753C92.7722 49.7972 93.4423 48.6466 94.871 48.596C97.0456 48.5202 100.105 50.9224 101.408 48.3305C101.926 47.3064 101.572 46.4846 101.016 45.6881C100.181 44.487 98.8789 44.0571 97.5387 43.9686C93.5182 43.6904 93.4676 41.8698 90.901 40.8078C89.3459 40.1629 87.3735 41.4526 88.5367 43.6652C89.6114 45.7007 90.9768 46.2318 90.0412 47.8754C89.0298 49.6834 84.2885 48.5328 83.8966 43.21C83.846 42.464 84.2379 39.5434 82.5185 39.0883C80.2806 38.494 79.4967 41.3135 78.6875 42.7422C77.145 45.4605 75.5393 45.903 74.7428 49.2282C73.744 53.3373 70.7096 54.8798 66.9798 55.5499C65.7534 55.7775 64.4006 54.8545 63.9328 53.666C63.5535 52.7051 64.3247 51.0362 65.5005 50.5052C67.0304 49.8098 69.0912 49.8604 70.3429 48.6466C71.9486 47.0915 71.5314 45.0559 69.42 44.2594C68.497 43.918 66.0189 44.133 62.8454 39.594C60.4938 36.2309 62.8707 34.0183 65.096 34.9539C66.7396 35.6366 70.6084 43.5261 75.1727 39.8595C80.9128 35.2447 78.4599 29.1633 87.1712 27.1277C88.2712 26.8748 89.1436 27.0897 90.0412 27.5196C91.432 28.1897 91.5332 30.5667 89.9907 31.2621C88.3976 31.9827 86.5138 32.0965 85.8437 32.2862C83.5552 32.9436 83.2518 36.509 86.3873 36.5596C89.0803 36.5975 89.9274 35.3585 93.1768 37.3688L93.1894 37.3814Z" fill="black" fill-opacity="0.04"/>
<path d="M20.642 -2.98859C21.7799 -2.98859 23.1959 -2.78629 23.4994 -1.68633C24.258 1.08256 20.8822 2.00553 18.0248 2.13196C15.1801 2.27104 12.4491 2.89057 10.0848 4.6227C8.46647 5.79853 8.40325 8.03639 9.7308 8.92142C12.8158 10.9949 13.9916 8.09961 14.9778 7.48009C19.4282 4.7112 20.1742 10.1731 22.3362 11.5512C23.866 12.5248 26.1039 12.7144 27.7475 12.5501C31.7175 12.1708 33.1715 15.0661 37.8496 16.5074C39.7713 17.1017 41.6046 17.9488 43.3368 19.0234C44.6896 19.8579 46.1689 20.5027 47.5344 21.3245C54.8296 25.7244 45.4609 28.0002 49.001 33.9299C53.6664 41.7561 56.4858 36.5092 61.4926 44.702C62.3903 46.1687 62.2133 47.6353 61.1891 48.8364C59.811 50.4548 58.9513 53.3754 59.2547 53.9064C59.811 54.8926 59.1915 55.7902 59.0904 56.6879C58.9766 57.712 57.5732 58.7741 56.7008 58.7994C55.7399 58.8246 54.4882 57.8385 54.1215 56.7764C52.8066 53.0214 55.5123 50.303 56.3973 47.8123C57.8639 43.7032 52.8698 42.3125 51.7446 44.702C51.1124 46.0296 50.9733 47.7491 50.771 48.3686C48.7608 54.5512 40.2518 42.6412 39.0254 41.655C37.976 40.8079 37.8243 39.6826 37.9128 38.4562C37.976 37.6976 38.3932 37.3057 39.1265 37.1919C42.8057 36.6735 42.8057 41.0355 45.3344 42.8688C47.901 44.74 49.7722 42.8182 49.1021 41.0861C47.0413 35.7632 40.7575 34.9414 44.0827 29.0623C45.4229 26.6853 44.2597 24.7635 42.7804 23.7394C35.599 18.7579 34.7519 21.7038 29.6314 17.9993C27.8866 16.735 25.8258 16.4063 23.7902 16.1028C22.096 15.8626 15.8755 19.0867 11.7664 16.0017C10.2745 14.8891 8.7067 13.8397 7.3918 12.5374C4.40797 9.59152 1.55058 4.38249 5.59645 2.18255C7.97339 0.880286 10.4515 -0.219688 12.6894 -1.81275C14.3962 -3.02651 20.7052 -2.74836 20.6926 -2.98859H20.642ZM17.4306 12.4363C17.4812 11.8673 16.5203 10.8938 15.8628 10.8559C15.1548 10.8179 14.4341 11.4627 14.4594 12.0949C14.5606 14.0293 17.2915 13.827 17.4306 12.4363Z" fill="black" fill-opacity="0.04"/>
<path d="M76.829 -25.1271C75.2612 -28.0983 79.206 -29.4259 79.4209 -32.22C79.6485 -35.2291 76.7026 -35.4062 75.6532 -34.243C74.9199 -33.4338 73.8831 -31.335 73.0866 -30.45C71.3924 -28.5661 68.8511 -31.2086 69.4327 -32.6752C70.6338 -35.7602 71.9108 -35.3935 73.2257 -39.4141C73.8705 -41.3738 75.6026 -42.7898 77.36 -41.0451C79.9266 -38.4911 81.1025 -35.0901 84.415 -37.3279C86.6276 -38.8198 84.0104 -37.3785 91.4447 -43.5358C92.9998 -44.8254 95.1618 -44.0542 96.0722 -42.7393C97.071 -41.2979 98.0698 -39.806 99.3341 -38.6175C106.187 -32.1442 106.351 -34.5843 107.426 -31.1706C107.742 -30.1465 106.313 -28.5282 105.036 -28.3891C102.166 -28.0857 102.154 -29.8431 95.9204 -36.5567C95.3894 -37.1256 94.6561 -37.5176 93.9607 -37.9095C92.6079 -38.6681 91.3941 -38.2509 90.3447 -37.29C89.1942 -36.228 90.7493 -37.2015 82.8978 -29.5649C80.4956 -27.2259 82.6449 -23.8754 85.0598 -24.495C90.0539 -25.7846 89.3206 -29.9442 91.6343 -31.9925C93.809 -33.9269 97.0078 -30.8419 95.0101 -28.0225C92.5826 -24.5708 93.1136 -23.8754 92.6205 -21.7261C92.001 -19.0077 89.839 -20.0319 88.1069 -20.6008C86.4632 -21.1445 85.0345 -20.2089 85.123 -18.502C85.4771 -11.2953 85.8943 -10.9919 89.6114 -5.37825C92.0642 -1.66111 94.3527 -4.79665 96.0975 -5.84604C97.3491 -6.60464 98.9928 -6.20007 99.7893 -4.98631C100.384 -4.10127 100.042 -2.53349 98.9422 -1.77489C95.0607 0.91814 91.7861 -1.3703 90.6229 6.44327C90.2436 9.03516 90.7999 10.8305 89.1057 12.8155C87.6896 14.4718 84.9334 12.7523 84.9081 10.8684C84.8955 9.46503 86.3747 6.20304 87.1965 3.29508C88.5114 -1.33238 85.8563 -3.31738 83.3656 -7.36324C80.268 -12.3826 74.1739 -9.86662 72.6694 -14.8481C72.2015 -16.4032 71.4682 -17.9457 72.2142 -19.6526C73.1751 -21.8525 75.0084 -21.2077 75.6026 -20.0319C76.2727 -18.6917 76.5635 -16.7825 77.8278 -15.3538C79.1175 -13.8998 81.2542 -14.6332 81.3047 -16.7699C81.4312 -22.1306 78.5485 -21.8146 76.8164 -25.1145L76.829 -25.1271Z" fill="black" fill-opacity="0.04"/>
<path d="M57.5732 103.304C55.8284 103.443 54.3997 101.888 52.971 100.333C52.5917 99.9154 52.7434 98.1201 53.0722 97.7155C54.1342 96.3753 55.9928 97.3867 58.6732 98.2085C60.1524 98.6637 62.188 96.8431 60.772 94.9719C59.318 93.0627 56.9158 93.4041 55.0066 90.0536C52.9078 86.3871 44.6264 86.4376 50.101 79.9136C52.6297 76.9045 54.6273 75.3115 55.9801 74.5402C60.3674 72.0369 59.4824 68.5473 59.6088 64.3624C59.6341 63.4394 60.1904 61.0878 61.3662 60.4682C62.6938 59.7729 64.0339 59.3683 65.5259 59.6591C68.181 60.1774 70.7096 60.1395 72.9854 58.3442C74.7555 56.9407 78.5106 56.081 79.1807 58.1798C79.4082 58.8878 79.5473 59.7602 78.8519 60.4556C77.9416 61.3659 76.7784 61.7831 75.59 62.0613C70.8361 63.1486 70.9119 66.6508 69.6982 69.5841C68.5729 72.3024 66.8534 70.8737 62.0995 75.5138C60.3294 77.2333 55.9296 79.6229 54.8043 80.3436C52.7055 81.709 53.7043 84.8193 55.6261 84.6296C58.5467 84.3515 57.2066 83.5802 63.1995 80.824C66.5373 79.2815 66.4615 77.208 68.7625 75.2862C70.2165 74.0725 72.3533 75.4632 71.6199 77.4229C70.8613 79.4332 68.6993 81.4309 70.9372 84.4653C73.3521 87.7272 71.6832 93.303 68.7752 94.9213C64.4006 97.3488 64.1983 103.215 57.5732 103.316V103.304ZM64.1351 91.672C68.9269 91.6467 68.851 84.617 64.0213 85.0848C60.9995 85.3756 58.61 88.4985 61.2398 90.6099C62.0742 91.28 63.0098 91.7984 64.1351 91.6846V91.672ZM64.7546 68.6485C65.9431 68.7243 66.3856 67.8646 66.9166 67.245C67.5994 66.4485 67.5109 65.6141 66.9293 64.7543C65.7029 62.9084 62.3271 64.6026 62.7823 66.9037C62.9719 67.8646 63.5661 68.6105 64.7546 68.6485Z" fill="black" fill-opacity="0.04"/>
<path d="M139.527 -3.69664C138.086 -6.13681 140.981 -6.75632 142.258 -7.7425C143.649 -8.81719 143.624 -11.0424 142.17 -11.6619C137.643 -13.5837 133.471 -3.8863 127.402 -0.700182C121.902 2.1825 121.536 -5.94715 113.393 -1.98979C110.169 -0.422014 108.273 0.285997 106.098 -2.2806C103.494 -5.35293 101.433 -10.8275 100.864 -11.9148C100.105 -13.3688 98.2088 -13.9504 96.9571 -12.4458C96.5146 -11.9148 96.1859 -11.3079 95.7939 -10.739C92.848 -6.52874 86.4758 -14.0642 93.8595 -15.948C97.1215 -16.7825 97.9812 -18.7928 97.3996 -21.7007C97.1594 -22.8639 97.5261 -23.7869 97.8927 -24.7478C98.3985 -26.0374 101.85 -26.4546 101.964 -23.711C102.141 -19.2227 101.332 -18.4261 103.468 -15.2147C105.567 -12.0412 107.476 -7.66665 108.88 -6.84484C111.687 -5.18856 117.578 -6.81955 119.905 -11.6999C120.537 -13.0401 121.586 -14.0515 122.686 -14.9998C123.609 -15.7837 124.722 -16.0365 125.974 -15.986C127.402 -15.9354 128.237 -14.178 127.617 -13.0906C125.974 -10.1953 124.241 -10.9918 122.813 -8.85512C122.168 -7.88159 122.256 -6.93333 122.737 -5.98508C123.078 -5.31499 124.633 -4.75869 125.43 -4.98627C127.213 -5.50464 128.629 -6.85748 129.665 -8.43789C131.119 -10.6378 133.269 -12.0286 135.355 -13.5079C136.392 -14.2412 137.34 -15.1262 138.389 -15.8469C141.677 -18.0595 145.571 -15.2526 147.303 -12.1424C150.78 -5.89657 141.588 -0.181793 139.502 -3.70928L139.527 -3.69664Z" fill="black" fill-opacity="0.04"/>
<path d="M25.1052 7.9605C23.2466 7.31569 23.0443 4.38245 24.827 3.69971C26.1545 3.18133 27.4189 2.63766 28.9614 3.08018C31.0981 3.68706 33.4245 2.53652 34.3221 0.399801C36.5727 -4.88511 36.2566 -6.89541 38.3427 -8.85512C44.1839 -14.3297 41.807 -12.9136 44.6265 -17.4146C45.246 -18.4008 46.9023 -19.033 48.3057 -18.1732C50.5056 -16.8204 49.178 -14.8101 47.585 -12.7493C45.8908 -10.5493 44.2977 -8.28616 42.2495 -6.35173C40.353 -4.55638 39.3542 -2.17944 38.7726 0.33658C38.4818 1.57563 37.8876 2.75146 38.1025 4.09165C38.5829 7.15133 39.5565 6.87317 43.1472 8.74438C62.5294 18.8717 60.2789 15.4833 59.2042 28.6956C59.1157 29.7197 60.3421 32.3621 58.3445 34.246C55.7147 36.7241 52.5285 33.1334 53.6411 29.9978C54.4883 27.5956 55.8284 24.46 55.1457 21.8429C54.5894 19.7062 52.7687 18.3407 50.6826 17.7338C48.3436 17.0511 46.5103 15.4074 44.3357 14.4212C37.9255 11.5006 38.2289 12.373 34.6509 8.45359C31.6797 5.19162 29.1131 9.35127 25.1052 7.9605Z" fill="black" fill-opacity="0.04"/>
<path d="M82.4047 15.4326C80.622 18.467 80.1163 17.2027 77.6382 16.7223C76.4371 16.4947 74.9831 17.1268 74.7934 18.0119C73.9084 22.0198 78.8899 20.9451 80.2933 22.7784C80.8496 23.4991 81.545 24.1439 81.0393 25.1933C79.7496 27.7978 77.2336 27.507 75.0716 25.522C72.7073 23.36 71.1269 20.7302 67.3845 20.8819C66.6132 20.9072 65.8293 20.6038 65.0707 20.4015C62.5673 19.7314 63.5156 15.5211 67.4224 16.1786C69.6982 16.5579 71.8223 16.8361 72.505 14.6361C72.7705 13.7764 72.2521 12.0822 71.443 11.6144C70.4315 11.0201 69.3821 10.4765 68.1304 11.1086C67.473 11.4374 66.6891 11.5132 66.0443 11.8546C63.288 13.3212 60.6203 13.2201 58.0157 11.5132C53.4768 8.54203 49.9114 7.5432 45.6126 4.67317C41.5162 1.94221 43.969 -3.94958 46.2575 -3.545C48.2677 -3.19098 47.9643 -1.82549 49.1528 0.854896C50.4803 3.83872 51.4665 1.84107 58.5215 6.79726C61.341 8.76961 64.2995 8.47882 67.2454 6.82255C69.8499 5.35592 68.8764 0.12158 72.4165 0.930753C73.0992 1.08247 73.7314 1.94221 73.7693 2.91575C73.8199 4.26858 73.9084 5.62143 73.7693 6.96163C73.5291 9.18685 75.4509 11.4626 77.6761 11.9431C80.3818 12.5373 82.1645 13.1316 82.43 15.4453L82.4047 15.4326Z" fill="black" fill-opacity="0.04"/>
<path d="M165.168 -10.0815C168.266 -9.32294 168.48 -7.11036 167.886 -3.97481C166.344 4.16749 172.855 3.53533 169.998 8.44094C168.759 10.5524 168.139 12.8029 168.076 15.2683C167.987 18.8085 162.993 22.5003 156.28 17.6074C153.953 15.9131 151.399 14.1178 151.311 11.1719C151.134 5.40653 153.65 4.04106 160.781 -0.39675C164.523 -2.73577 162.627 -5.0242 163.057 -8.07124C163.221 -9.31029 163.701 -9.285 165.168 -10.0689V-10.0815ZM161.135 4.10427C156.684 8.42829 155.458 9.13632 156.368 11.3995C157.064 13.1316 158.492 13.9914 159.984 14.8258C161.514 15.6856 163.79 15.0155 163.701 12.5627C163.638 10.9949 163.954 9.41446 164.789 7.97313C167.102 3.99048 163.524 1.76526 161.135 4.09163V4.10427Z" fill="black" fill-opacity="0.04"/>
<path d="M57.1812 -12.3953C63.073 -12.9895 63.7937 -7.52757 68.7752 -8.71604C70.6084 -9.15856 72.6061 -8.98155 74.3635 -7.88158C75.7163 -7.03447 77.183 -6.38966 78.5231 -5.52992C83.0495 -2.64724 83.9218 3.35833 81.7851 6.84789C80.6852 8.64325 78.1818 8.16281 78.0933 5.88701C77.9416 2.14458 78.8519 0.0457973 75.8175 -2.20471C74.1359 -3.44376 72.3279 -4.50581 70.1153 -4.36673C64.9316 -4.05065 67.1821 1.67678 63.1741 3.21926C60.8098 4.12958 58.4455 1.72735 60.2915 -0.599026C60.7593 -1.18062 61.2144 -1.77485 61.7075 -2.33116C64.2488 -5.26441 60.6075 -8.2988 58.4455 -8.27352C56.2835 -8.24823 55.3479 -6.97126 56.1192 -4.92304C56.764 -3.20355 57.6111 -1.98979 55.9422 -0.953037C54.2859 0.0710716 52.8066 -1.69899 51.8457 -3.39319C49.7849 -7.02183 49.2665 -10.0057 52.933 -11.801C54.21 -12.4332 55.5249 -12.3573 57.1812 -12.3826V-12.3953Z" fill="black" fill-opacity="0.04"/>
<path d="M174.587 2.3974C170.276 0.728485 174.752 -2.45763 172.261 -7.89426C171.755 -9.00688 172.488 -10.208 173.083 -10.5999C173.727 -11.0425 175.131 -10.6758 175.839 -9.90457C176.509 -9.17126 177.091 -8.33679 177.837 -7.69198C181.162 -4.87252 186.737 -8.13449 185.397 -10.7264C184.879 -11.7378 183.703 -12.2689 182.59 -12.0792C180.947 -11.8011 178.519 -11.3838 178.254 -13.3688C177.9 -16.0366 180.011 -16.2136 182.818 -16.2389C184.98 -16.2389 185.587 -18.1227 185.144 -19.0963C183.69 -22.2824 183.311 -23.4961 184.323 -24.7605C186.017 -26.8593 188.356 -25.9742 188.798 -24.103C189.026 -23.1801 189.228 -22.1939 189.14 -21.2709C188.937 -19.1089 189.911 -17.8193 191.82 -17.048C192.161 -16.909 192.49 -16.694 192.844 -16.6055C193.805 -16.3779 194.273 -15.6573 194.551 -14.8481C194.88 -13.9125 193.754 -12.2309 191.769 -12.4585C189.848 -12.6734 187.989 -10.5747 188.735 -9.00688C189.026 -8.4 189.039 -7.65406 189.279 -7.02189C190.037 -4.97367 188.76 -2.93808 186.206 -2.76107C185.536 -2.7105 182.515 -3.27946 180.77 -2.98866C176.408 -2.268 177.988 1.38593 174.587 2.41004V2.3974Z" fill="black" fill-opacity="0.04"/>
<path d="M6.21601 54.273C1.72763 54.0075 -2.48259 53.0087 -4.1768 57.8637C-4.53081 58.8626 -4.77104 59.912 -5.2262 60.8602C-5.93423 62.3395 -7.42612 62.4154 -8.34908 61.0625C-9.89157 58.7994 -6.97097 57.9396 -9.76515 54.488C-10.1571 53.9949 -10.4479 53.4259 -10.7893 52.8823C-11.1938 52.2248 -11.2823 51.58 -10.726 50.9605C-9.98008 50.1007 -9.28469 49.6329 -6.86982 50.7329C-5.59284 51.3145 -3.58256 51.9719 -2.46994 51.0996C-0.737808 49.7467 -1.00331 47.7996 -3.15267 46.8514C-4.92274 46.0675 -6.83188 46.3836 -9.29733 44.5503C-10.9283 43.3366 -9.7525 39.3413 -4.93539 41.301C3.13105 44.5756 1.8035 49.2663 6.20338 49.241C7.10106 49.241 8.02401 49.3042 8.88376 49.5444C10.4768 49.987 10.932 51.5674 9.92052 52.8696C8.73205 54.3995 7.49299 54.3236 6.21601 54.3236C6.21601 54.3236 6.21601 54.311 6.21601 54.2983V54.273Z" fill="black" fill-opacity="0.04"/>
<path d="M245.263 20.0348C246.351 13.9408 248.336 12.0695 251.863 9.38916C255.669 6.50649 256.592 4.01575 260.473 2.90313C264.797 1.66409 264.494 -2.04041 266.681 -3.12774C267.983 -3.78519 268.578 -3.78518 269.437 -2.97601C270.234 -2.23005 270.474 -1.11745 269.968 -0.0427649C269.336 1.32271 266.947 4.66055 266.062 5.76052C264.026 8.31447 261.068 6.83521 257.3 10.6661C253.684 14.3453 251.18 16.0269 250.422 20.2371C249.941 22.8922 248.943 23.398 247.741 23.4991C246.136 23.6382 245.731 21.4762 245.251 20.0348H245.263Z" fill="black" fill-opacity="0.04"/>
<path d="M239.296 18.4039C241.66 18.4039 243.127 21.2739 239.27 24.283C235.983 26.8496 233.189 31.6541 227.247 33.0069C224.768 33.5759 222.24 35.0425 220.28 37.508C217.284 41.3009 214.123 40.8837 213.111 38.4436C212.1 36.0034 215.147 34.9161 219.471 32.3115C220.444 31.73 221.709 29.2139 227.044 28.1393C233.948 26.7611 235.705 18.1005 239.308 18.3913L239.296 18.4039Z" fill="black" fill-opacity="0.04"/>
<path d="M75.7922 71.3288C74.9704 71.2403 74.1992 71.1265 73.9842 70.3426C72.7958 66.006 79.3703 66.5876 84.1494 61.7705C84.6299 61.2774 85.3 60.9613 85.7425 60.4429C87.2218 58.7234 86.8425 57.0166 84.9965 56.1695C82.5311 55.0442 80.7358 55.0189 79.2059 53.3247C77.4359 51.3776 78.9151 48.3432 81.3047 49.1903C82.4173 49.5823 83.3529 50.3282 87.5252 52.9833C90.6102 54.943 96.2238 57.3326 91.5332 60.7969C86.0207 64.868 87.0574 67.6496 82.4426 68.4967C80.7231 68.8128 79.2691 69.622 77.8151 70.4943C77.1956 70.861 76.475 71.038 75.8049 71.3035L75.7922 71.3288Z" fill="black" fill-opacity="0.04"/>
<path d="M147.404 5.8996C147.113 9.13629 147.29 10.4259 146.013 12.0063C145.204 13.0178 142.852 12.9419 142.321 10.9064C142.081 9.9834 141.993 9.02251 141.955 8.06162C141.879 6.16512 140.513 4.43299 138.667 4.07898C138.25 4.00312 137.808 4.05367 137.378 4.04103C136.392 4.02839 135.57 4.34449 135.216 5.34331C134.799 6.51914 135.431 6.9743 137.416 10.1983C138.048 11.2098 136.999 13.1569 135.102 12.5373C132.181 11.5765 133.218 9.76847 129.514 8.23862C126.543 7.01222 126.454 5.19159 128.098 3.91461C128.388 3.68703 131.208 2.62499 133.104 0.829635C134.71 -0.687564 136.657 -0.839293 138.592 0.108956C142.498 2.00546 143.674 0.842287 146.355 2.67557C147.48 3.44681 147.417 4.69849 147.391 5.8996H147.404Z" fill="black" fill-opacity="0.04"/>
<path d="M33.4497 30.0483C33.2601 29.1759 33.0831 28.2909 32.8681 27.4185C32.4762 25.8381 33.7279 24.3714 35.3083 24.5864C37.4324 24.8645 39.1645 27.1783 38.8611 29.3908C38.6208 31.1356 37.5841 32.2735 36.6738 33.5505C34.6256 36.4711 31.6417 40.34 29.0498 37.8745C24.3465 33.3988 23.3604 29.315 22.311 24.4726C22.1592 23.7519 21.9949 23.006 22.0328 22.2727C22.1213 20.7934 23.5247 20.0474 24.9281 20.5784C28.9866 22.1209 27.7349 25.7117 28.443 30.2506C28.9108 33.2471 33.2221 33.8919 33.4497 30.0609V30.0483Z" fill="black" fill-opacity="0.04"/>
<path d="M112.673 16.2546C113.09 18.9729 110.258 21.1349 108.007 20.9073C106.389 20.743 105.479 19.5165 105.871 17.9235C106.566 15.104 107.021 14.4213 105.517 11.88C104.139 9.56625 103.114 6.48128 99.5996 7.87205C98.3227 8.37778 97.9054 8.5295 97.1595 8.58007C94.5297 8.76972 93.9228 5.52037 96.6285 4.14225C97.9939 3.44687 99.3973 2.76414 100.826 2.22048C104.202 0.956145 106.781 3.09286 107.767 6.48127C109.386 12.0443 112.964 12.1455 112.66 16.2546H112.673Z" fill="black" fill-opacity="0.04"/>
<path d="M258.994 16.9626C258.337 14.181 261.422 13.1822 264.14 12.588C272.889 10.6788 271.448 2.95375 274.659 1.63885C277.491 0.488302 279.805 3.63649 277.807 6.00079C276.151 7.9605 274.862 10.1604 273.42 12.2592C272.573 13.4983 267.882 16.8994 264.001 17.9867C263.293 18.189 262.547 18.2901 261.826 18.4418C261.763 18.1637 259.386 18.5809 259.007 16.9752L258.994 16.9626Z" fill="black" fill-opacity="0.04"/>
<path d="M136.961 21.4509C137.492 18.1257 137.454 14.8385 139.856 14.9775C141.601 15.0787 142.144 17.1016 141.917 18.7958C141.133 24.7635 143.383 25.206 147.404 28.1392C149.604 29.7449 151.867 30.7185 150.628 33.1586C149.819 34.7391 147.316 34.1827 146.367 33.5885C142.208 30.9461 136.973 26.5209 136.948 21.4636L136.961 21.4509Z" fill="black" fill-opacity="0.04"/>
<path d="M152.31 -17.5664C153.89 -17.6676 154.94 -16.732 155.951 -15.9228C157.354 -14.8102 158.151 -13.2045 158.695 -11.5103C160.123 -7.08509 156.292 -2.63466 152.461 0.108944C150.451 1.53764 148.125 -0.70022 149.414 -2.64729C151.968 -6.49086 152.259 -4.79666 153.751 -8.223C154.712 -10.4229 152.322 -12.0919 150.653 -14.2918C149.591 -15.6952 150.944 -17.9836 152.297 -17.5538L152.31 -17.5664Z" fill="black" fill-opacity="0.04"/>
<path d="M27.7475 61.3659C27.7728 63.3888 25.535 63.9831 23.6132 64.7922C18.5938 66.9163 18.2018 71.3794 15.926 72.4162C12.6894 73.8701 10.5779 69.5209 12.8916 67.5359C20.1236 61.3533 18.2398 63.0475 20.8696 60.8475C24.612 57.712 27.7475 58.8752 27.7475 61.3786V61.3659Z" fill="black" fill-opacity="0.04"/>
<path d="M5.508 17.1142C7.37921 17.1395 8.46653 18.9728 7.72058 20.6923C6.38038 23.8152 4.93905 24.6496 7.08841 27.3679C7.45507 27.8357 9.19985 28.9357 9.71823 30.0736C10.4263 31.6161 9.41478 33.1459 7.73321 33.2218C3.97815 33.3735 1.55064 28.9483 0.969045 25.3071C0.589746 22.9554 3.28277 16.6843 5.508 17.1142Z" fill="black" fill-opacity="0.04"/>
<path d="M206.79 38.7216C205.601 39.0377 204.691 38.2285 203.857 37.5458C202.554 36.4711 201.303 35.27 200.241 33.9551C197.674 30.7816 197.826 24.8645 200.734 24.8645C202.074 24.8645 202.403 24.9404 202.972 26.2173C203.25 26.8242 203.414 27.5322 203.427 28.2023C203.477 31.9068 205.627 32.539 208.041 33.816C211.506 35.6619 209.786 39.025 206.802 38.709L206.79 38.7216Z" fill="black" fill-opacity="0.04"/>
<path d="M145.849 19.2256C145.811 17.8854 146.051 17.0762 147.063 16.6464C149.604 15.559 149.44 18.3912 155.078 22.2474C156.039 22.9048 157.165 23.3094 158.138 23.9542C159.263 24.6749 159.554 26.1162 158.947 27.3047C157.683 29.7954 154.712 29.1253 153.195 27.0898C150.666 23.6761 147.164 23.6128 145.861 19.213L145.849 19.2256Z" fill="black" fill-opacity="0.04"/>
<path d="M178.115 7.82139C179.897 9.71789 178.165 11.9431 178.14 17.6453C178.115 22.9175 171.401 21.6153 172.463 16.4947C174.081 8.66849 174.423 7.44209 178.115 7.82139Z" fill="black" fill-opacity="0.04"/>
<path d="M72.7072 34.8402C70.9118 35.4597 71.1394 33.1333 64.9442 29.7576C63.5913 29.0243 62.7063 26.2048 64.312 25.2945C66.6889 23.9416 67.9533 25.522 70.8486 27.6335C71.7463 28.2909 72.5934 29.0495 73.5543 29.5932C76.045 30.984 76.0956 34.8528 72.7198 34.8402H72.7072Z" fill="black" fill-opacity="0.04"/>
<path d="M117.262 1.98022C118.742 2.06873 120.056 2.35952 121.296 3.11812C122.636 3.92729 122.863 5.96287 121.624 6.87319C120.663 7.56857 118.4 8.45361 117.136 8.79498C113.09 9.89495 110.207 4.33188 113.924 2.82733C114.974 2.39745 116.15 2.25837 117.275 1.99286L117.262 1.98022Z" fill="black" fill-opacity="0.04"/>
<path d="M168.19 22.7659C169.429 23.044 170.68 23.2337 171.881 23.613C173.285 24.0555 174.157 26.0658 173.588 27.368C172.324 30.1875 167.203 28.8473 164.46 27.2922C163.107 26.5209 162.652 23.1325 168.19 22.7659Z" fill="black" fill-opacity="0.04"/>
<path d="M18.3409 26.091C18.3409 26.8875 18.4547 27.6841 17.6581 28.2783C14.5732 30.5794 11.3112 25.6358 11.602 23.4359C12.1709 19.0866 18.3409 20.9704 18.3409 26.091Z" fill="black" fill-opacity="0.04"/>
<path d="M182.325 6.96161C181.048 6.96161 179.746 6.84781 179.354 5.6467C178.431 2.85252 183.488 0.39971 186.27 1.19624C189.595 2.15713 188.444 6.83518 182.337 6.96161H182.325Z" fill="black" fill-opacity="0.04"/>
<path d="M232.254 45.3215C233.998 45.2709 235.124 46.864 234.428 48.3559C231.419 54.8798 224.743 52.9454 227.474 49.0639C228.663 47.3823 230.18 46.118 232.241 45.3088L232.254 45.3215Z" fill="black" fill-opacity="0.04"/>
<path d="M38.115 47.4835C38.1024 53.5776 27.3429 45.5617 32.9313 42.9066C33.8669 42.4641 34.6002 42.9319 35.3209 43.3365C36.6737 44.0951 37.407 45.41 38.0265 46.7628C38.153 47.041 38.1024 47.395 38.115 47.4835Z" fill="black" fill-opacity="0.04"/>
<path d="M88.4103 23.7773C86.754 23.8152 84.6173 22.0325 84.5667 20.5532C84.5035 18.9728 86.1471 17.5188 87.9551 17.5694C92.2539 17.6705 92.3044 23.6761 88.4103 23.7773Z" fill="black" fill-opacity="0.04"/>
<path d="M200.847 41.5791C200.847 44.9296 195.297 44.6514 195.133 40.8331C195.082 39.632 196.561 38.0895 197.674 38.2033C199.457 38.393 200.683 39.5688 200.847 41.5665V41.5791Z" fill="black" fill-opacity="0.04"/>
<path d="M273.407 27.4817C277.39 27.5323 276.53 33.2092 273.192 33.2092C272.054 33.2092 270.588 31.7678 270.676 30.5414C270.803 28.7587 271.953 27.2036 273.395 27.4817H273.407Z" fill="black" fill-opacity="0.04"/>
</g>
</svg>
