<svg width="51" height="14" viewBox="0 0 51 14" fill="none" xmlns="http://www.w3.org/2000/svg">
<path d="M11.9907 11L11.9757 0.499999H10.7457L6.42572 7.88L2.04572 0.499999H0.815723V11H2.25572V3.395L6.05072 9.725H6.74072L10.5357 3.35L10.5507 11H11.9907ZM18.3369 11.09C20.7219 11.09 22.4619 9.395 22.4619 7.025C22.4619 4.655 20.7219 2.975 18.3369 2.975C15.9519 2.975 14.1969 4.655 14.1969 7.025C14.1969 9.395 15.9519 11.09 18.3369 11.09ZM18.3369 9.83C16.8069 9.83 15.6519 8.72 15.6519 7.025C15.6519 5.33 16.8069 4.235 18.3369 4.235C19.8669 4.235 21.0069 5.33 21.0069 7.025C21.0069 8.72 19.8669 9.83 18.3369 9.83ZM28.6984 2.975C27.4384 2.975 26.4184 3.44 25.8334 4.25V3.05H24.4534V11H25.8934V6.905C25.8934 5.18 26.8834 4.265 28.4134 4.265C29.7784 4.265 30.5584 5.03 30.5584 6.59V11H31.9984V6.425C31.9984 4.085 30.6334 2.975 28.6984 2.975ZM41.8923 7.07C41.8923 4.625 40.2573 2.975 37.9623 2.975C35.6673 2.975 33.9723 4.67 33.9723 7.025C33.9723 9.395 35.6823 11.09 38.2473 11.09C39.5673 11.09 40.6623 10.64 41.3823 9.8L40.5873 8.87C40.0023 9.515 39.2223 9.83 38.2923 9.83C36.7173 9.83 35.5923 8.9 35.4123 7.505H41.8623C41.8773 7.37 41.8923 7.19 41.8923 7.07ZM37.9623 4.19C39.3573 4.19 40.3623 5.135 40.5123 6.47H35.4123C35.5623 5.12 36.5823 4.19 37.9623 4.19ZM49.3704 3.05L46.6254 9.41L43.8504 3.05H42.3504L45.8604 10.985L45.6054 11.54C45.2154 12.455 44.7804 12.77 44.0904 12.77C43.5504 12.77 43.0554 12.56 42.6654 12.185L42.0504 13.265C42.5454 13.745 43.3254 14 44.0904 14C45.3054 14 46.2204 13.475 46.9254 11.795L50.7804 3.05H49.3704Z" fill="white"/>
</svg>
