<svg width="145" height="374" viewBox="0 0 145 374" fill="none" xmlns="http://www.w3.org/2000/svg">
<path d="M93.2103 123.945C97.185 127.92 97.2127 134.336 93.2718 138.277C89.3308 142.218 82.9142 142.191 78.9395 138.216" stroke="white" stroke-width="2.28058" stroke-linecap="round" stroke-linejoin="round"/>
<path d="M26.5855 57.3216L5.70138 36.4374C1.61302 32.3491 -5.0371 32.3644 -9.15003 36.4774C-13.263 40.5903 -13.2814 47.2373 -9.18996 51.3288L-5.95859 54.5602" stroke="white" stroke-width="2.28058" stroke-linecap="round" stroke-linejoin="round"/>
<path d="M-25.9552 234.81L-48.2185 257.074C-53.8304 262.686 -53.8549 271.759 -48.2738 277.34C-42.6926 282.922 -33.6189 282.897 -28.007 277.285L-18.8197 268.098M-8.55121 328.189L-9.87816 329.516C-13.7945 333.432 -20.1467 333.426 -24.0661 329.506C-27.9855 325.587 -27.9917 319.235 -24.0753 315.318L-8.24712 299.49C-2.46014 293.703 -2.46935 284.319 -8.2594 278.529M-107.944 223.114L-99.9665 231.091C-90.2509 240.806 -74.5087 240.816 -64.8054 231.112L-57.8082 224.115C-51.969 218.276 -42.496 218.282 -36.6506 224.127" stroke="white" stroke-width="2.28058" stroke-linecap="round" stroke-linejoin="round"/>
<path d="M12.8154 267.376C16.7901 263.401 16.8176 256.984 12.8768 253.043C8.93604 249.103 2.51926 249.13 -1.45547 253.105C-5.43019 257.08 -5.45771 263.496 -1.51691 267.437C2.42388 271.378 8.84068 271.35 12.8154 267.376Z" stroke="white" stroke-width="2.28058" stroke-linecap="round" stroke-linejoin="round"/>
<path d="M85.3524 187.75C92.6076 200.301 108.479 204.715 120.802 197.607C133.126 190.499 137.236 174.563 129.983 162.01C122.728 149.459 106.86 145.048 94.5335 152.153" stroke="white" stroke-width="2.28058" stroke-linecap="round" stroke-linejoin="round"/>
<path d="M60.083 125.067C64.2636 129.247 70.9843 129.302 75.0973 125.189C79.2102 121.077 79.1549 114.356 74.9744 110.175C70.7939 105.995 64.0731 105.939 59.9602 110.052L35.0215 134.991" stroke="white" stroke-width="2.28058" stroke-linecap="round" stroke-linejoin="round"/>
<path d="M52.2566 252.995C48.2819 249.02 48.2573 242.6 52.1982 238.659C56.1391 234.719 62.5589 234.743 66.5336 238.718C70.5083 242.693 70.5329 249.112 66.592 253.053L55.2453 264.4" stroke="white" stroke-width="2.28058" stroke-linecap="round" stroke-linejoin="round"/>
<path d="M46.886 102.779C53.831 95.8336 53.7388 84.4808 46.6833 77.4252C39.6277 70.3696 28.2749 70.2775 21.3299 77.2225L-11.6289 110.181" stroke="white" stroke-width="2.28058" stroke-linecap="round" stroke-linejoin="round"/>
<path d="M-27.8197 194.483L-38.9022 183.4C-42.066 180.236 -42.0476 175.088 -38.8623 171.903C-35.677 168.718 -30.5289 168.699 -27.3651 171.863L-5.19705 194.031C-2.03325 197.195 -2.05168 202.343 -5.23698 205.528C-8.42228 208.713 -13.5704 208.732 -16.7342 205.568L-19.4126 202.89" stroke="white" stroke-width="2.28058" stroke-linecap="round" stroke-linejoin="round"/>
<path d="M-54.1895 187.225L-25.4511 215.963C-16.8597 224.554 -2.86836 224.49 5.79983 215.822C14.468 207.154 14.5325 193.162 5.94111 184.571L-0.850296 177.779" stroke="white" stroke-width="2.28058" stroke-linecap="round" stroke-linejoin="round"/>
<path d="M-37.0645 267.373L-11.281 241.589C-1.4702 231.778 14.4839 231.821 24.3501 241.687C34.2162 251.554 34.2592 267.508 24.4484 277.319L16.6925 285.074" stroke="white" stroke-width="2.28058" stroke-linecap="round" stroke-linejoin="round"/>
<path d="M100.325 168.411C104.265 164.47 110.63 164.446 114.543 168.359C118.456 172.272 118.432 178.637 114.491 182.577C110.55 186.518 104.186 186.543 100.272 182.63L54.127 136.484" stroke="white" stroke-width="2.28058" stroke-linecap="round" stroke-linejoin="round"/>
<path d="M51.5239 226.431C44.2594 219.167 44.1826 207.467 51.3519 200.298L74.2264 177.423" stroke="white" stroke-width="2.28058" stroke-linecap="round" stroke-linejoin="round"/>
<path d="M45.565 145.536L52.2336 152.204C58.9666 158.937 58.9636 169.851 52.2274 176.587L42.7084 186.106" stroke="white" stroke-width="2.28058" stroke-linecap="round" stroke-linejoin="round"/>
<path d="M35.3917 89.2086L24.9696 99.6307C17.4318 107.169 17.4871 119.443 25.0955 127.051" stroke="white" stroke-width="2.28058" stroke-linecap="round" stroke-linejoin="round"/>
<path d="M-1.27148 156.391L17.5884 175.251" stroke="white" stroke-width="2.28058" stroke-linecap="round" stroke-linejoin="round"/>
<path d="M30.8613 226.741L38.5527 234.433" stroke="white" stroke-width="2.28058" stroke-linecap="round" stroke-linejoin="round"/>
<path d="M-3.43918 118.365L14.2197 136.023C16.9996 138.803 16.9781 143.322 14.1767 146.123C11.3754 148.924 11.3569 153.446 14.1368 156.226L15.1811 157.27C17.961 160.05 22.4825 160.031 25.2838 157.23C28.0851 154.429 32.6066 154.41 35.3864 157.19L36.5414 158.345C39.9571 161.761 39.9356 167.324 36.4922 170.767L28.5305 178.729M24.5988 215.638L27.9223 212.314C34.7875 205.449 34.7936 194.323 27.9377 187.467" stroke="white" stroke-width="2.28058" stroke-linecap="round" stroke-linejoin="round"/>
<path d="M2.87598 63.142L5.39166 65.6577C8.93942 69.2054 8.93019 74.9709 5.37322 78.5279C1.81318 82.0879 -3.9523 82.0972 -7.50005 78.5494L-9.5857 76.4638C-13.1089 72.9406 -18.8252 72.9498 -22.3576 76.4822C-25.89 80.0146 -25.8992 85.7371 -22.3791 89.2572L-19.8143 91.822" stroke="white" stroke-width="2.28058" stroke-linecap="round" stroke-linejoin="round"/>
<path d="M65.4154 222.954C60.4148 217.953 60.4179 209.847 65.4216 204.844C70.4222 199.843 78.5344 199.84 83.532 204.838L90.1145 211.42C95.1152 216.421 95.1121 224.527 90.1084 229.531C85.1078 234.531 76.9955 234.534 71.998 229.537L65.4154 222.954Z" stroke="white" stroke-width="2.28058" stroke-linecap="round" stroke-linejoin="round"/>
</svg>
