<svg width="34" height="73" viewBox="0 0 34 73" fill="none" xmlns="http://www.w3.org/2000/svg">
<path d="M6.75964 65.3054C3.02598 62.697 2.1028 57.5734 4.69736 53.8596C7.29191 50.1457 12.4216 49.2507 16.154 51.8582L22.3405 56.1802" stroke="white" stroke-width="0.792555" stroke-linecap="round" stroke-linejoin="round"/>
<path d="M9.56308 60.4174C8.32182 59.5503 7.99488 57.8726 8.8335 56.6722C9.67213 55.4717 11.3587 55.2007 12.6012 56.0687L15.002 57.746" stroke="white" stroke-width="0.792555" stroke-linecap="round" stroke-linejoin="round"/>
<path d="M49.134 61.6975L40.1643 55.4312C37.9033 53.8516 34.797 54.3941 33.2261 56.6427C31.6552 58.8913 32.2145 61.9946 34.4755 63.5742L38.177 66.1601M18.2386 73.322L17.704 72.9486C16.1262 71.8462 15.7426 69.6723 16.8458 68.0932C17.949 66.5141 20.1222 66.1263 21.7 67.2286L28.0771 71.6837C30.4086 73.3126 33.619 72.7397 35.2487 70.4069M48.1586 32.9327L45.9134 36.1466C43.1788 40.0609 44.1314 45.4481 48.0408 48.1793L50.8599 50.1487C53.2124 51.7923 53.7855 55.0341 52.1402 57.3891" stroke="white" stroke-width="0.792555" stroke-linecap="round" stroke-linejoin="round"/>
<path d="M30.936 67.3905C26.6888 64.4233 25.8802 58.2473 29.1301 53.5954C30.2584 51.9804 31.7269 50.7615 33.3428 49.9826M47.997 54.167L42.7585 50.5073C41.0828 49.3367 39.1255 48.8329 37.1746 48.9341" stroke="white" stroke-width="0.792555" stroke-linecap="round" stroke-linejoin="round"/>
<path d="M22.5227 35.7454C20.6874 34.4633 20.2275 31.9505 21.4958 30.1351C22.7641 28.3196 25.2817 27.887 27.117 29.1691C28.9523 30.4513 29.4122 32.964 28.1439 34.7795L21.1176 44.837" stroke="white" stroke-width="0.792555" stroke-linecap="round" stroke-linejoin="round"/>
<path d="M32.4748 20.5405C30.887 19.4313 28.7146 19.7994 27.6218 21.3637C26.529 22.9279 26.9308 25.0943 28.5185 26.2035C30.1063 27.3128 32.2786 26.9447 33.3714 25.3804L41.4508 13.8156" stroke="white" stroke-width="0.792555" stroke-linecap="round" stroke-linejoin="round"/>
<path d="M32.1145 42.7752C30.4723 41.628 30.0692 39.3686 31.2148 37.7288L37.1232 29.2715C38.2687 27.6317 40.5289 27.2329 42.1711 28.3802C43.8133 29.5274 44.2164 31.7868 43.0708 33.4266L37.1624 41.8839C36.0168 43.5237 33.7567 43.9225 32.1145 42.7752Z" stroke="white" stroke-width="0.792555" stroke-linecap="round" stroke-linejoin="round"/>
<path d="M19.5522 40.0237L19.3121 39.856C17.6019 38.6612 15.2466 39.0802 14.051 40.7917C12.8553 42.5032 13.2721 44.8588 14.9824 46.0536L22.1366 51.0517C23.8469 52.2465 26.2021 51.8275 27.3978 50.116C28.5935 48.4045 28.1767 46.0489 26.4664 44.854L26.2263 44.6863" stroke="white" stroke-width="0.792555" stroke-linecap="round" stroke-linejoin="round"/>
<path d="M37.3174 59.8728L47.7053 67.1299C51.658 69.8914 52.6119 75.3531 49.8349 79.3281C47.058 83.3031 41.6014 84.2864 37.6487 81.525L34.5239 79.342" stroke="white" stroke-width="0.792555" stroke-linecap="round" stroke-linejoin="round"/>
<path d="M10.7987 68.1252L13.9803 63.5711C15.8123 60.9487 19.395 60.1829 22.5472 61.5306" stroke="white" stroke-width="0.792555" stroke-linecap="round" stroke-linejoin="round"/>
<path d="M40.0508 7.7793L33.6253 16.9767" stroke="white" stroke-width="0.792555" stroke-linecap="round" stroke-linejoin="round"/>
</svg>
