<svg width="200" height="59" viewBox="0 0 200 59" fill="none" xmlns="http://www.w3.org/2000/svg">
<path d="M51.8903 26.9541C55.2219 24.8635 59.6029 25.8464 61.6758 29.1496C63.7486 32.4529 62.7281 36.8253 59.3965 38.9159" stroke="white" stroke-width="1.59577" stroke-linecap="round" stroke-linejoin="round"/>
<path d="M94.1842 42.2738C103.877 39.2843 109.366 29.1479 106.441 19.6326C103.517 10.1174 93.2892 4.8264 83.5943 7.81324C73.901 10.8027 68.4152 20.9375 71.337 30.4544" stroke="white" stroke-width="1.59577" stroke-linecap="round" stroke-linejoin="round"/>
<path d="M47.4838 49.7252C50.9879 47.5264 52.0747 42.9508 49.9114 39.5034C47.7481 36.056 43.1553 35.0445 39.6513 37.2434C36.1472 39.4422 35.0603 44.0177 37.2236 47.4652L50.3408 68.3687" stroke="white" stroke-width="1.59577" stroke-linecap="round" stroke-linejoin="round"/>
<path d="M133.519 75.0342C130.188 77.1248 125.805 76.1394 123.732 72.8361C121.659 69.5328 122.678 65.1578 126.01 63.0672C129.341 60.9766 133.724 61.962 135.797 65.2653L141.765 74.776" stroke="white" stroke-width="1.59577" stroke-linecap="round" stroke-linejoin="round"/>
<path d="M30.2211 55.2465C26.5682 49.4253 18.8102 47.7158 12.8963 51.4269C6.98236 55.138 5.14724 62.8672 8.80015 68.6885L26.1357 96.3143" stroke="white" stroke-width="1.59577" stroke-linecap="round" stroke-linejoin="round"/>
<path d="M83.3294 29.0432C81.2566 25.74 82.2334 21.395 85.5134 19.3367C88.7935 17.2784 93.1308 18.2888 95.2036 21.592C97.2765 24.8953 96.2997 29.2402 93.0196 31.2985L54.3408 55.5699" stroke="white" stroke-width="1.59577" stroke-linecap="round" stroke-linejoin="round"/>
<path d="M115.286 71.3862C109.197 75.2072 101.205 73.4331 97.4341 67.4239L85.4026 48.2506" stroke="white" stroke-width="1.59577" stroke-linecap="round" stroke-linejoin="round"/>
<path d="M59.1788 62.8222L64.7683 59.3147C70.4119 55.7733 77.8555 57.4791 81.3985 63.1252L86.4053 71.1041" stroke="white" stroke-width="1.59577" stroke-linecap="round" stroke-linejoin="round"/>
<path d="M19.1711 60.9681L24.6529 69.7038C28.6176 76.022 36.9984 77.9004 43.3757 73.8985" stroke="white" stroke-width="1.59577" stroke-linecap="round" stroke-linejoin="round"/>
<path d="M32.9951 92.0064L47.7967 82.7182C50.1268 81.2561 53.2053 81.9761 54.6788 84.3242C56.1522 86.6722 59.2334 87.3907 61.5634 85.9285L62.4388 85.3792C64.7688 83.9171 65.4621 80.8302 63.9887 78.4821C62.5152 76.134 63.2085 73.0471 65.5385 71.585L66.5066 70.9775C69.3696 69.181 73.1605 70.064 74.9716 72.9502L79.1593 79.6236M103.721 88.0672L101.972 85.2814C98.3616 79.5271 90.774 77.7861 85.0274 81.3922" stroke="white" stroke-width="1.59577" stroke-linecap="round" stroke-linejoin="round"/>
<path d="M115.084 61.3691C110.892 63.9994 105.363 62.7319 102.732 58.5378C100.101 54.3463 101.366 48.8125 105.555 46.1839L111.072 42.7217C115.264 40.0914 120.792 41.3589 123.424 45.553C126.054 49.7445 124.79 55.2783 120.601 57.9069L115.084 61.3691Z" stroke="white" stroke-width="1.59577" stroke-linecap="round" stroke-linejoin="round"/>
</svg>
