<svg width="187" height="70" viewBox="0 0 187 70" fill="none" xmlns="http://www.w3.org/2000/svg">
<path d="M109.55 53.7509C100.931 62.3704 86.9972 62.4075 78.4234 53.8337C69.8496 45.2599 69.8895 31.3236 78.5062 22.7069L92.7883 8.42485" stroke="white" stroke-opacity="0.7" stroke-width="2.30178" stroke-linecap="round" stroke-linejoin="round"/>
<path d="M97.9796 44.0829C95.114 46.9484 90.54 47.0256 87.7687 44.2543C84.9975 41.483 85.0717 36.9119 87.9402 34.0435L93.4827 28.5009" stroke="#5A0BD8" stroke-width="2.30178" stroke-linecap="round" stroke-linejoin="round"/>
<path d="M119.855 -59.5998L99.148 -38.8924C93.9283 -33.6727 93.9054 -25.2332 99.0965 -20.0421C104.288 -14.8509 112.727 -14.8738 117.947 -20.0935L126.492 -28.6387M136.043 27.2524L134.809 28.4866C131.166 32.1293 125.258 32.1235 121.612 28.478C117.967 24.8325 117.961 18.9243 121.604 15.2816L136.326 0.559612C141.708 -4.82294 141.7 -13.551 136.314 -18.9364M43.5968 -70.4792L51.0164 -63.0597C60.053 -54.023 74.6951 -54.0145 83.7203 -63.0397L90.2285 -69.5479C95.6596 -74.979 104.471 -74.9733 109.907 -69.5364" stroke="white" stroke-opacity="0.7" stroke-width="2.30178" stroke-linecap="round" stroke-linejoin="round"/>
<path d="M126.349 -8.98272C116.544 0.822437 99.891 0.065338 89.1516 -10.6741C85.4232 -14.4024 82.8977 -18.8422 81.6006 -23.4648M99.4796 -60.1255L87.386 -48.0319C83.5176 -44.1636 81.2749 -39.241 80.6292 -34.0527" stroke="white" stroke-opacity="0.7" stroke-width="2.30178" stroke-linecap="round" stroke-linejoin="round"/>
<path d="M39.0228 -1.60595C34.7859 2.63095 27.9492 2.66809 23.758 -1.5231C19.5668 -5.7143 19.6039 -12.5511 23.8408 -16.788C28.0777 -21.0249 34.9145 -21.062 39.1057 -16.8708L62.3244 6.34788" stroke="white" stroke-opacity="0.7" stroke-width="2.30178" stroke-linecap="round" stroke-linejoin="round"/>
<path d="M48.9075 8.22202L48.3532 8.77627C44.4049 12.7246 44.4078 19.1271 48.359 23.0783C52.3102 27.0295 58.7127 27.0324 62.661 23.084L79.1772 6.56782C83.1256 2.61947 83.1227 -3.78302 79.1715 -7.73423C75.2203 -11.6854 68.8178 -11.6883 64.8695 -7.73994L64.3152 -7.18569" stroke="white" stroke-opacity="0.7" stroke-width="2.30178" stroke-linecap="round" stroke-linejoin="round"/>
<path d="M109.521 -29.313L133.503 -53.2945C142.628 -62.4197 157.467 -62.3797 166.644 -53.203C175.821 -44.0264 175.861 -29.1872 166.735 -20.062L159.522 -12.8482" stroke="white" stroke-opacity="0.7" stroke-width="2.30178" stroke-linecap="round" stroke-linejoin="round"/>
<path d="M118.87 44.4314L108.356 33.9177C102.302 27.8638 101.959 18.0643 106.985 10.3876" stroke="white" stroke-opacity="0.7" stroke-width="2.30178" stroke-linecap="round" stroke-linejoin="round"/>
</svg>
