<svg width="127" height="204" viewBox="0 0 127 204" fill="none" xmlns="http://www.w3.org/2000/svg">
<path d="M78.6925 3.28314C82.3894 6.98008 82.4151 12.9483 78.7496 16.6138C75.0841 20.2793 69.1159 20.2536 65.4189 16.5567" stroke="black" stroke-width="2.30178" stroke-linecap="round" stroke-linejoin="round"/>
<path d="M-32.1446 106.4L-52.852 127.108C-58.0717 132.327 -58.0946 140.767 -52.9035 145.958C-47.7123 151.149 -39.2728 151.126 -34.0531 145.906L-25.5079 137.361M-15.957 193.252L-17.1912 194.487C-20.8338 198.129 -26.7421 198.124 -30.3876 194.478C-34.0331 190.833 -34.0388 184.924 -30.3962 181.282L-15.6741 166.56C-10.2916 161.177 -10.3001 152.449 -15.6856 147.064M-108.403 95.5208L-100.984 102.94C-91.947 111.977 -77.3049 111.986 -68.2797 102.96L-61.7715 96.4521C-56.3404 91.021 -47.5295 91.0267 -42.0926 96.4636" stroke="black" stroke-width="2.30178" stroke-linecap="round" stroke-linejoin="round"/>
<path d="M3.91569 136.69C7.61263 132.993 7.63821 127.025 3.97283 123.359C0.307439 119.694 -5.6609 119.719 -9.35784 123.416C-13.0548 127.113 -13.0804 133.082 -9.41499 136.747C-5.74961 140.412 0.218748 140.387 3.91569 136.69Z" stroke="black" stroke-width="2.30178" stroke-linecap="round" stroke-linejoin="round"/>
<path d="M71.3831 62.6284C78.1313 74.302 92.8934 78.4075 104.356 71.7964C115.818 65.1854 119.64 50.3634 112.895 38.6869C106.147 27.0132 91.3877 22.9106 79.9227 29.5188" stroke="#B1B1B8" stroke-width="2.30178" stroke-linecap="round" stroke-linejoin="round"/>
<path d="M47.8794 4.32594C51.7678 8.21429 58.0189 8.26569 61.8444 4.4402C65.6699 0.614698 65.6184 -5.63637 61.7301 -9.52472C57.8417 -13.4131 51.5907 -13.4645 47.7652 -9.63901L24.5693 13.5568" stroke="black" stroke-width="2.30178" stroke-linecap="round" stroke-linejoin="round"/>
<path d="M40.6002 123.313C36.9032 119.617 36.8804 113.645 40.5459 109.98C44.2114 106.314 50.1825 106.337 53.8794 110.034C57.5763 113.731 57.5992 119.702 53.9337 123.368L43.38 133.921" stroke="black" stroke-width="2.30178" stroke-linecap="round" stroke-linejoin="round"/>
<path d="M35.6052 -16.4043C42.0648 -22.864 41.9791 -33.4234 35.4166 -39.9859C28.8541 -46.5484 18.2947 -46.6341 11.8351 -40.1744L-18.8203 -9.51901" stroke="black" stroke-width="2.30178" stroke-linecap="round" stroke-linejoin="round"/>
<path d="M-58.4062 62.1398L-31.6763 88.8697C-23.6854 96.8607 -10.6718 96.8007 -2.6094 88.7383C5.453 80.6759 5.51299 67.6623 -2.47799 59.6713L-8.79477 53.3546" stroke="black" stroke-width="2.30178" stroke-linecap="round" stroke-linejoin="round"/>
<path d="M-42.4785 136.687L-18.497 112.706C-9.37181 103.58 5.46735 103.62 14.644 112.797C23.8206 121.974 23.8606 136.813 14.7354 145.938L7.52152 153.152" stroke="black" stroke-width="2.30178" stroke-linecap="round" stroke-linejoin="round"/>
<path d="M85.3088 44.6408C88.9744 40.9753 94.894 40.9524 98.5338 44.5922C102.174 48.232 102.151 54.1517 98.4852 57.8172C94.8197 61.4827 88.9001 61.5055 85.2603 57.8657L42.3398 14.9453" stroke="black" stroke-width="2.30178" stroke-linecap="round" stroke-linejoin="round"/>
<path d="M39.9201 98.6063C33.1634 91.8495 33.0919 80.9673 39.7601 74.2991L61.0361 53.0232" stroke="black" stroke-width="2.30178" stroke-linecap="round" stroke-linejoin="round"/>
<path d="M34.3767 23.3648L40.5792 29.5673C46.8417 35.8298 46.8388 45.9807 40.5735 52.2461L31.7197 61.0999" stroke="black" stroke-width="2.30178" stroke-linecap="round" stroke-linejoin="round"/>
<path d="M24.9147 -29.0265L15.2209 -19.3328C8.20988 -12.3217 8.26131 -0.905225 15.3381 6.17152" stroke="black" stroke-width="2.30178" stroke-linecap="round" stroke-linejoin="round"/>
<path d="M-9.18652 33.4614L8.35534 51.0033" stroke="black" stroke-width="2.30178" stroke-linecap="round" stroke-linejoin="round"/>
<path d="M20.7012 98.8949L27.855 106.049" stroke="black" stroke-width="2.30178" stroke-linecap="round" stroke-linejoin="round"/>
<path d="M-11.2032 -1.90805L5.2216 14.5167C7.80716 17.1023 7.78717 21.3049 5.1816 23.9105C2.57604 26.5161 2.55889 30.7215 5.14446 33.3071L6.11584 34.2785C8.7014 36.864 12.9069 36.8469 15.5124 34.2413C18.118 31.6358 22.3235 31.6186 24.9091 34.2042L25.9833 35.2784C29.1602 38.4554 29.1402 43.6294 25.9376 46.8321L18.5323 54.2373M14.8753 88.5668L17.9666 85.4756C24.3519 79.0902 24.3577 68.7422 17.9809 62.3655" stroke="#B1B1B8" stroke-width="2.30178" stroke-linecap="round" stroke-linejoin="round"/>
<path d="M52.8385 95.3722C48.1873 90.721 48.1902 83.1815 52.8442 78.5274C57.4953 73.8763 65.0406 73.8734 69.689 78.5217L75.8115 84.6442C80.4626 89.2954 80.4598 96.835 75.8058 101.489C71.1546 106.14 63.6093 106.143 58.961 101.495L52.8385 95.3722Z" stroke="black" stroke-width="2.30178" stroke-linecap="round" stroke-linejoin="round"/>
</svg>
