<svg width="187" height="70" viewBox="0 0 187 70" fill="none" xmlns="http://www.w3.org/2000/svg">
<path d="M109.549 53.7509C100.93 62.3704 86.9962 62.4075 78.4224 53.8337C69.8486 45.2599 69.8886 31.3236 78.5052 22.7069L92.7873 8.42485" stroke="white" stroke-width="2.30178" stroke-linecap="round" stroke-linejoin="round"/>
<path d="M97.9786 44.0829C95.1131 46.9484 90.539 47.0256 87.7678 44.2543C84.9965 41.483 85.0708 36.9119 87.9392 34.0435L93.4817 28.5009" stroke="#B1B1B8" stroke-width="2.30178" stroke-linecap="round" stroke-linejoin="round"/>
<path d="M119.854 -59.5998L99.147 -38.8924C93.9273 -33.6727 93.9044 -25.2332 99.0956 -20.0421C104.287 -14.8509 112.726 -14.8738 117.946 -20.0935L126.491 -28.6387M136.042 27.2524L134.808 28.4866C131.165 32.1293 125.257 32.1235 121.611 28.478C117.966 24.8325 117.96 18.9243 121.603 15.2816L136.325 0.559612C141.707 -4.82294 141.699 -13.551 136.313 -18.9364M43.5958 -70.4792L51.0154 -63.0597C60.0521 -54.023 74.6941 -54.0145 83.7193 -63.0397L90.2275 -69.5479C95.6586 -74.979 104.47 -74.9733 109.906 -69.5364" stroke="white" stroke-opacity="0.7" stroke-width="2.30178" stroke-linecap="round" stroke-linejoin="round"/>
<path d="M126.349 -8.98272C116.544 0.822437 99.891 0.065338 89.1516 -10.6741C85.4232 -14.4024 82.8977 -18.8422 81.6006 -23.4648M99.4796 -60.1255L87.386 -48.0319C83.5176 -44.1636 81.2749 -39.241 80.6292 -34.0527" stroke="white" stroke-opacity="0.7" stroke-width="2.30178" stroke-linecap="round" stroke-linejoin="round"/>
<path d="M39.0219 -1.60595C34.785 2.63095 27.9482 2.66809 23.757 -1.5231C19.5658 -5.7143 19.603 -12.5511 23.8399 -16.788C28.0768 -21.0249 34.9135 -21.062 39.1047 -16.8708L62.3234 6.34788" stroke="white" stroke-opacity="0.7" stroke-width="2.30178" stroke-linecap="round" stroke-linejoin="round"/>
<path d="M48.9075 8.22202L48.3532 8.77627C44.4049 12.7246 44.4078 19.1271 48.359 23.0783C52.3102 27.0295 58.7127 27.0324 62.661 23.084L79.1772 6.56782C83.1256 2.61947 83.1227 -3.78302 79.1715 -7.73423C75.2203 -11.6854 68.8178 -11.6883 64.8695 -7.73994L64.3152 -7.18569" stroke="#B1B1B8" stroke-width="2.30178" stroke-linecap="round" stroke-linejoin="round"/>
<path d="M109.521 -29.313L133.503 -53.2945C142.628 -62.4197 157.467 -62.3797 166.644 -53.203C175.821 -44.0264 175.861 -29.1872 166.735 -20.062L159.522 -12.8482" stroke="white" stroke-opacity="0.7" stroke-width="2.30178" stroke-linecap="round" stroke-linejoin="round"/>
<path d="M118.869 44.4314L108.355 33.9177C102.301 27.8638 101.958 18.0643 106.984 10.3876" stroke="white" stroke-opacity="0.7" stroke-width="2.30178" stroke-linecap="round" stroke-linejoin="round"/>
</svg>
