<svg width="38" height="13" viewBox="0 0 38 13" fill="none" xmlns="http://www.w3.org/2000/svg">
<path d="M3.71957 12H5.20457V2.805H8.80457V1.5H0.11957V2.805H3.71957V12ZM10.7579 2.52C11.3279 2.52 11.7329 2.1 11.7329 1.56C11.7329 1.05 11.3129 0.645 10.7579 0.645C10.2029 0.645 9.78285 1.065 9.78285 1.59C9.78285 2.115 10.2029 2.52 10.7579 2.52ZM10.0379 12H11.4779V4.05H10.0379V12ZM24.1723 3.975C22.8223 3.975 21.7123 4.545 21.1123 5.445C20.5873 4.455 19.5673 3.975 18.3523 3.975C17.1523 3.975 16.1773 4.425 15.6073 5.235V4.05H14.2273V12H15.6673V7.905C15.6673 6.18 16.6123 5.265 18.0523 5.265C19.3573 5.265 20.1073 6.03 20.1073 7.59V12H21.5473V7.905C21.5473 6.18 22.4923 5.265 23.9323 5.265C25.2373 5.265 25.9873 6.03 25.9873 7.59V12H27.4273V7.425C27.4273 5.085 26.1073 3.975 24.1723 3.975ZM37.3059 8.07C37.3059 5.625 35.6709 3.975 33.3759 3.975C31.0809 3.975 29.3859 5.67 29.3859 8.025C29.3859 10.395 31.0959 12.09 33.6609 12.09C34.9809 12.09 36.0759 11.64 36.7959 10.8L36.0009 9.87C35.4159 10.515 34.6359 10.83 33.7059 10.83C32.1309 10.83 31.0059 9.9 30.8259 8.505H37.2759C37.2909 8.37 37.3059 8.19 37.3059 8.07ZM33.3759 5.19C34.7709 5.19 35.7759 6.135 35.9259 7.47H30.8259C30.9759 6.12 31.9959 5.19 33.3759 5.19Z" fill="white"/>
</svg>
