<svg width="29" height="36" viewBox="0 0 29 36" fill="none" xmlns="http://www.w3.org/2000/svg">
<path d="M26 5.92222V2.36667H28.7045V0H0V2.36667H2.69318V7.56667C2.69838 8.54193 2.93266 9.50299 3.37795 10.3757C3.82323 11.2484 4.46761 12.0094 5.26136 12.6L12.3295 17.7778L5.26136 22.9444C4.56675 23.4585 3.98531 24.1042 3.55185 24.8431C3.11839 25.5819 2.8418 26.3987 2.73864 27.2444H20.4205V29.6111H2.69318V33.1778H0V35.5556H28.7045V33.1778H26V27.9889C26.0005 27.0122 25.7699 26.0487 25.3264 25.1736C24.8828 24.2985 24.2383 23.5356 23.4432 22.9444L16.375 17.7778L23.4432 12.6C24.141 12.0865 24.7245 11.4395 25.1583 10.6983C25.592 9.95709 25.8668 9.1373 25.9659 8.28889H8.29545V5.92222H26Z" fill="white"/>
</svg>
