<svg width="85" height="33" viewBox="0 0 85 33" fill="none" xmlns="http://www.w3.org/2000/svg">
<path d="M8.34033 31.6216C2.92627 31.6216 0.219238 28.5547 0.219238 22.4209C0.219238 20.2617 0.493164 18.1724 1.04102 16.1528L4.18311 15.5566C3.56006 17.6943 3.24854 19.8804 3.24854 22.1147C3.24854 26.8521 5.04248 29.2207 8.63037 29.2207C11.8423 29.2207 13.4482 26.9863 13.4482 22.5176V10.4648H16.4937V16.4751C16.4937 18.355 16.7139 19.7031 17.1543 20.5195C17.6162 21.3896 18.395 21.8247 19.4907 21.8247C21.6069 21.8247 22.665 20.0522 22.665 16.5073V9.14355H25.5977V17.603C25.5977 19.2681 25.9521 20.3638 26.6611 20.8901C27.2734 21.3521 28.5249 21.583 30.4155 21.583H31.4629C31.6455 20.0791 31.7368 18.5537 31.7368 17.0068C31.7368 13.7197 31.3716 10.6851 30.6411 7.90283L33.6221 7.37109C34.4062 10.3359 34.7983 13.4565 34.7983 16.7329C34.7983 19.0747 34.6104 21.4971 34.2344 24H30.5122C28.3745 24 26.8062 23.8066 25.8071 23.4199C24.8296 23.0332 24.1313 22.3457 23.7124 21.3574C23.3579 22.3672 22.6973 23.1299 21.7305 23.6455C21.0322 24.0107 20.3232 24.1934 19.6035 24.1934H19.4907C18.019 24.1934 16.9717 23.71 16.3486 22.7432V22.9204C16.3486 25.9604 15.5645 28.2217 13.9961 29.7041C12.6211 30.9824 10.7358 31.6216 8.34033 31.6216ZM43.8862 32.3467C42.189 32.3467 40.4702 32.1802 38.73 31.8472L38.9395 29.3174C40.7871 29.7363 42.5435 29.9458 44.2085 29.9458C48.4087 29.9458 50.5088 28.2271 50.5088 24.7896V24H47.1895C41.4209 24 38.5366 21.438 38.5366 16.314C38.5366 13.9829 39.2188 12.0708 40.583 10.5776C42.0762 8.94482 44.1655 8.12842 46.8511 8.12842C49.2681 8.12842 51.481 8.51514 53.4897 9.28857V21.583H57.1152V24H53.4897V24.6284C53.4897 26.7983 52.7754 28.5654 51.3467 29.9297C49.6602 31.541 47.1733 32.3467 43.8862 32.3467ZM50.5088 11.3027C49.4346 10.7871 48.1079 10.5293 46.5288 10.5293C45.0034 10.5293 43.8003 11.0288 42.9194 12.0278C42.0386 13.0161 41.5981 14.332 41.5981 15.9756C41.5981 19.7139 43.6016 21.583 47.6084 21.583H50.5088V11.3027ZM56.6802 21.583H61.3047V0.732422H64.334V21.583H67.9595V24H56.6802V21.583ZM67.4761 24V21.583H70.0864C70.8491 21.583 71.4883 21.6421 72.0039 21.7603C70.3711 20.729 69.5547 18.8706 69.5547 16.1851C69.5547 13.9077 70.2476 12.0278 71.6333 10.5454C73.1265 8.93408 75.1836 8.12842 77.8047 8.12842C82.5098 8.12842 84.8623 10.5938 84.8623 15.5244V24H67.4761ZM81.8975 16.04C81.8975 12.3662 80.4473 10.5293 77.5469 10.5293C76.0215 10.5293 74.8184 11.0342 73.9375 12.0439C73.0566 13.0215 72.6162 14.3428 72.6162 16.0078C72.6162 19.7246 74.6196 21.583 78.6265 21.583H81.8975V16.04ZM77.4341 4.88965C76.9399 4.88965 76.521 4.71777 76.1772 4.37402C75.8335 4.03027 75.6616 3.61133 75.6616 3.11719C75.6616 2.6123 75.8335 2.18262 76.1772 1.82812C76.5317 1.47363 76.9507 1.29639 77.4341 1.29639C77.939 1.29639 78.3687 1.46826 78.7231 1.81201C79.0776 2.1665 79.2549 2.60156 79.2549 3.11719C79.2549 3.61133 79.0776 4.03027 78.7231 4.37402C78.3687 4.71777 77.939 4.88965 77.4341 4.88965Z" fill="#DE6758"/>
</svg>
