<svg width="64" height="33" viewBox="0 0 64 33" fill="none" xmlns="http://www.w3.org/2000/svg">
<path d="M12.8125 24C8.48307 24 5.32715 23.1341 3.34473 21.4023C1.46484 19.7617 0.524902 17.2324 0.524902 13.8145C0.524902 11.6042 0.912272 9.66732 1.68701 8.00391L5.10498 7.40576C4.21631 9.21729 3.77197 11.2282 3.77197 13.4385C3.77197 16.2184 4.42708 18.2179 5.7373 19.437C7.18424 20.77 9.66797 21.4365 13.1885 21.4365H19.1528V7.54248H22.3657V21.4365H26.2109V24H12.8125ZM9.83887 4.32959C9.31478 4.32959 8.87044 4.15299 8.50586 3.7998C8.15267 3.43522 7.97607 2.97949 7.97607 2.43262C7.97607 1.93132 8.15267 1.49837 8.50586 1.13379C8.87044 0.769206 9.31478 0.586914 9.83887 0.586914C10.3516 0.586914 10.7845 0.763509 11.1377 1.1167C11.5023 1.48128 11.6846 1.91992 11.6846 2.43262C11.6846 2.95671 11.5023 3.40674 11.1377 3.78271C10.7731 4.1473 10.3402 4.32959 9.83887 4.32959ZM15.0171 4.32959C14.4816 4.32959 14.0373 4.15299 13.6841 3.7998C13.3081 3.43522 13.1201 2.97949 13.1201 2.43262C13.1201 1.93132 13.3081 1.49837 13.6841 1.13379C14.0487 0.769206 14.493 0.586914 15.0171 0.586914C15.5298 0.586914 15.957 0.763509 16.2988 1.1167C16.652 1.48128 16.8286 1.91992 16.8286 2.43262C16.8286 2.9681 16.652 3.41813 16.2988 3.78271C15.9456 4.1473 15.5184 4.32959 15.0171 4.32959ZM25.7495 24V21.4365H28.5181C29.327 21.4365 30.0049 21.4992 30.5518 21.6245C28.82 20.5308 27.9541 18.5597 27.9541 15.7114C27.9541 13.2961 28.689 11.3022 30.1587 9.72998C31.7424 8.021 33.9242 7.1665 36.7041 7.1665C41.6943 7.1665 44.1895 9.78125 44.1895 15.0107V24H25.7495ZM41.0449 15.5576C41.0449 11.6611 39.5068 9.71289 36.4307 9.71289C34.8128 9.71289 33.5368 10.2484 32.6025 11.3193C31.6683 12.3561 31.2012 13.7575 31.2012 15.5234C31.2012 19.4655 33.326 21.4365 37.5757 21.4365H41.0449V15.5576ZM38.9429 4.32959C38.4188 4.32959 37.9744 4.15299 37.6099 3.7998C37.2453 3.43522 37.063 2.97949 37.063 2.43262C37.063 1.93132 37.2453 1.49837 37.6099 1.13379C37.9744 0.769206 38.4188 0.586914 38.9429 0.586914C39.4556 0.586914 39.8885 0.763509 40.2417 1.1167C40.5949 1.48128 40.7715 1.91992 40.7715 2.43262C40.7715 2.9681 40.5949 3.41813 40.2417 3.78271C39.8885 4.1473 39.4556 4.32959 38.9429 4.32959ZM33.7646 4.32959C33.2406 4.32959 32.8019 4.15299 32.4487 3.7998C32.0841 3.43522 31.9019 2.97949 31.9019 2.43262C31.9019 1.93132 32.0841 1.49837 32.4487 1.13379C32.8019 0.769206 33.2406 0.586914 33.7646 0.586914C34.2773 0.586914 34.716 0.763509 35.0806 1.1167C35.4451 1.48128 35.6274 1.91992 35.6274 2.43262C35.6274 2.95671 35.4451 3.40674 35.0806 3.78271C34.716 4.1473 34.2773 4.32959 33.7646 4.32959ZM53.4009 32.8525C51.6007 32.8525 49.7778 32.6759 47.9321 32.3228L48.1543 29.6396C50.1139 30.084 51.9767 30.3062 53.7427 30.3062C58.1974 30.3062 60.4248 28.4832 60.4248 24.8374V24H56.9043C50.7861 24 47.7271 21.2827 47.7271 15.8481C47.7271 13.3758 48.4505 11.3478 49.8975 9.76416C51.4811 8.03239 53.6971 7.1665 56.5454 7.1665C59.1089 7.1665 61.4559 7.57666 63.5864 8.39697V24.6665C63.5864 26.9679 62.8288 28.8421 61.3135 30.2891C59.5247 31.998 56.8872 32.8525 53.4009 32.8525ZM60.4248 10.5332C59.2855 9.98633 57.8784 9.71289 56.2036 9.71289C54.5858 9.71289 53.3097 10.2427 52.3755 11.3022C51.4412 12.3504 50.9741 13.7461 50.9741 15.4893C50.9741 19.4541 53.099 21.4365 57.3486 21.4365H60.4248V10.5332Z" fill="#F4BF44"/>
</svg>
